<svg width="372" height="372" viewBox="0 0 372 372" fill="none" xmlns="http://www.w3.org/2000/svg">
<g clip-path="url(#clip0_1281_741)">
<path fill-rule="evenodd" clip-rule="evenodd" d="M237.4 332.45C238.5 333.725 239.6 335 240.8 336.4C243.9 333.1 246.4 330.5 249.1 328.1C252.9 324.1 257.4 322.6 262.6 324.8C267.9 326.9 269.9 331.2 269.9 336.7V347.4H305.8V336.5C305.8 331.1 308 327 313 324.8C317.9 322.7 322.2 323.6 326.5 328C328.356 329.928 330.06 331.957 331.574 333.761C332.18 334.484 332.756 335.171 333.3 335.8L359.251 309.849C359.267 309.866 359.284 309.883 359.3 309.9C359.339 309.939 359.363 309.978 359.371 309.993C359.385 310.017 359.361 309.982 359.3 309.8L359.251 309.849C358.067 308.616 356.858 307.383 355.65 306.15C354.425 304.9 353.2 303.65 352 302.4C347.7 298 346.7 293.8 348.9 288.8C351.1 283.7 355.3 281.7 360.6 281.7H371.4V245.8H360.7C355.2 245.8 351 243.6 348.8 238.4C346.6 233.3 348 228.9 351.9 225.2C354.117 223.065 356.401 221.065 358.532 219.2C358.996 218.793 359.453 218.393 359.9 218C355.298 213.398 350.876 209.001 346.503 204.654C342.228 200.404 338.001 196.201 333.7 191.9C331.5 194.2 329.1 196.7 326.7 199.2C322.9 203.4 318.3 205 312.9 202.7C307.5 200.4 305.6 195.9 305.7 190.3C305.766 188.044 305.745 185.744 305.722 183.4C305.711 182.211 305.7 181.011 305.7 179.8H294.2C293.847 178.013 293.504 176.231 293.162 174.454C291.953 168.18 290.759 161.979 289.2 155.9C288.5 152.9 288.9 151.2 291 149.1C294.705 145.411 298.411 141.725 302.115 138.04C320.605 119.647 339.072 101.278 357.4 82.6999C378.2 61.6999 375.9 28.2999 352.7 10.1999C333.6 -4.70012 306.4 -3.00012 288.9 14.3999C275.519 27.6604 262.175 40.9928 248.823 54.3325C239.923 63.2248 231.019 72.1204 222.1 80.9999C221 81.9999 219.1 82.8999 217.8 82.6999C213.522 82.0332 209.244 81.2122 204.967 80.3912C201.544 79.7344 198.122 79.0777 194.7 78.4999C192.5 78.0999 191 77.3999 189.7 75.3999C178.7 58.8999 159.7 50.9999 140.3 54.9999C137.3 55.5999 136.3 54.7999 134.8 52.4999C120.4 30.7999 100.1 20.7999 74.2999 24.9999C49.7 28.9999 33.7999 43.9999 26.3999 67.7999C23.3999 77.4999 23.5999 87.3999 25.5999 97.2999C24.6999 97.5999 23.9999 97.8999 23.2999 98.1999C7.19994 104.6 -2.40005 121.3 0.599945 137.4C3.99995 155.6 18.1999 167.7 36.3999 168H75.2999H79.3999C76.7999 185 77.2999 201.3 83.2999 217.1C83.7 218.2 82.7999 220.3 81.7999 221.3C72.1392 231.081 62.4064 240.825 52.6664 250.577C46.1744 257.077 39.6792 263.581 33.1999 270.1C31.9999 271.3 30.7999 272.7 30.1999 274.2C20.3999 299.3 10.6999 324.3 1.29995 349.5C0.199945 352.4 -0.100055 356.2 0.599945 359.3C2.89995 369.3 12.7999 374 22.8999 370.1C47.3999 360.7 71.8999 351.3 96.3999 341.8C98.2 341.1 99.8999 339.9 101.3 338.6C109.701 330.348 118.047 321.985 126.378 313.635C129.153 310.853 131.926 308.073 134.7 305.3C135.24 304.76 135.78 304.256 136.212 303.853C136.5 303.584 136.74 303.36 136.9 303.2C137.576 305.409 138.232 307.617 138.904 309.881C139.723 312.639 140.566 315.479 141.5 318.5C134.4 329.7 137.1 339.9 149.9 346.5C150.9 347 151.6 348.2 152.1 349.2C158.9 363.3 169.9 371.3 185.7 371.3C201.5 371.4 212.6 363.5 219.4 349.4C219.9 348.3 220.6 347 221.5 346.6C229.3 343.4 233.4 337.6 234 328.5C235.2 329.9 236.3 331.175 237.4 332.45ZM66.3999 39.4999C90.7999 29.6999 116.3 42.3999 125 59.9999C123.831 61.116 122.647 62.2109 121.469 63.3016C118.212 66.315 114.99 69.2957 112.2 72.5999C107 78.5999 103.9 85.8999 102.8 93.7999C102.5 95.9999 101.3 96.7999 99.3999 97.5999C89.9999 101.3 83.7999 110.3 84.2999 119.7H95.6999C97.9999 111.7 102.1 107.9 108.1 108C114.1 108.1 118.1 112 120.2 119.8H131.6C132.3 111.1 126.6 102 117.6 98.2999C114.6 97.0999 114.5 95.6999 115.2 92.9999C119.8 75.4999 136.4 64.4999 153.2 66.3999C172.2 68.5999 185.6 83.4999 185.8 101.8C185.8 106.9 185 111.1 179.9 114.4C171.8 119.6 168 127.8 167.8 137.8H178.8C179.366 136.572 179.864 135.345 180.351 134.142C181.411 131.524 182.424 129.024 184 126.9C188.9 120.2 197.8 118.3 205.2 121.7C212.4 124.9 216.9 133.2 215.5 140.6C213.9 149.3 207.3 155.3 198.6 155.9H196H37.6999C24.3999 155.8 14.8999 148.2 12.5999 135.8C10.2999 123.4 18.7999 111.1 31.2999 108.6C44.1999 106 56.6999 114.1 59.2999 126.6L59.3 126.6C59.6 128.2 59.9 129.8 60.1999 131.6H71.4999C74.1999 115.5 58.8999 99.0999 37.8999 95.6999C31.6999 76.5999 41.3999 49.4999 66.3999 39.4999ZM167.8 183.5V167.8C177.7 167.8 187.1 167.8 196.3 167.5C213.3 167.4 226.9 155.3 227.5 139.6C228.2 122 216.4 109 198.6 107.6C198.454 107.6 198.307 107.546 198.121 107.478C198.054 107.453 197.98 107.427 197.9 107.4C197.6 101.9 197.3 96.3999 197 90.5999C206.6 91.4999 215.8 94.1999 224.7 98.1999C259.6 113.8 282.5 149.9 281.6 187.2C281.2 206.9 273.6 223.4 260 237.4C257.331 240.162 254.624 242.875 251.92 245.586C245.911 251.609 239.917 257.617 234.4 264.1C230.85 268.241 227.949 272.988 225.042 277.742C223.527 280.221 222.01 282.701 220.4 285.1C219.8 286 218.8 287.3 218 287.3C211.571 287.449 205.198 287.431 198.631 287.413C196.413 287.406 194.172 287.4 191.9 287.4C191.9 284.411 191.85 281.451 191.801 278.512C191.694 272.11 191.589 265.805 192 259.5C192.6 248.2 183.8 238.4 171.7 239.5C168.9 239.7 166 239.6 163.1 239.5C158.8 239.4 156 237 156 233.5C156 230 158.9 227.6 163.2 227.6H221.9C230.1 227.6 236.8 222.4 239.1 214.6C241.3 207.1 238.4 198.8 231.6 194.8C228.6 193.1 224.8 192 221.4 191.9C210.614 191.686 199.829 191.726 189.043 191.767C184.729 191.784 180.414 191.8 176.1 191.8C169.8 191.8 167.8 189.8 167.8 183.5ZM179.813 279.866C179.806 282.391 179.8 284.933 179.8 287.5H151.9C145.8 272.7 135 261.5 124.1 250.3L124.089 250.289C115.793 241.892 107.397 233.396 100.6 223.8C89.0999 207.5 87.7999 188.9 91.1999 169.7C91.3999 169 92.7 167.9 93.3999 167.9C113.897 167.8 134.494 167.8 155.49 167.8H155.5V184.8C155.6 196.2 163 203.7 174.5 203.7H218.7C219.005 203.7 219.303 203.693 219.597 203.687C220.459 203.668 221.279 203.651 222.1 203.8C225.3 204.5 227.4 206.4 227.4 209.7C227.4 213 225.4 215 222.2 215.6C221.297 215.75 220.337 215.731 219.406 215.712C219.1 215.706 218.797 215.7 218.5 215.7H162.4C151.6 215.7 143.7 223.4 143.8 233.8C143.8 244 151.8 251.6 162.4 251.6C163.641 251.6 164.87 251.589 166.092 251.577C168.515 251.555 170.907 251.533 173.3 251.6C177.1 251.8 179.6 253.9 179.7 257.6C179.85 265.008 179.831 272.36 179.813 279.866ZM337.5 284.1C333.4 293.7 335.5 302.3 342.3 310.1C339.5 312.9 336.9 315.5 334.3 318.2C326.8 311.6 318.1 309.3 308.5 313.2C298.9 317.1 294.1 324.7 293.5 335.1H281.9C281.2 324.8 276.6 317.2 267 313.2C257.4 309.3 248.7 311.4 240.6 318.7C240.292 318.3 240.013 317.91 239.745 317.535C239.141 316.69 238.592 315.923 237.9 315.3C234.8 312.6 232.7 309.9 233.5 305.2C233.9 302.6 232.7 299.3 231.3 296.8C230.1 294.5 230.2 292.8 231.2 290.6C234.7 282.7 239.6 275.8 245.9 269C248.5 282.7 255.1 292.9 266.6 299.7C275.7 305.1 285.7 306.6 296.1 304.6C316.2 300.8 330.4 282.3 329.4 260.7C328.6 243.3 314.3 221.9 286.8 221.4C289.1 213.2 291.4 204.9 293.7 196.5C296 205.2 301.1 211.6 310 214.5C319 217.5 326.9 215.2 333.7 209.3C335.05 210.7 336.375 212.075 337.7 213.45C339.025 214.825 340.35 216.2 341.7 217.6C327.1 234.2 339.6 257.5 359.5 257.8V263.6V269.4C349.2 270 341.5 274.6 337.5 284.1ZM341.8 80.6999L290.8 29.6999C301.1 17.0999 313.9 9.09988 331.2 13.0999C345.8 16.4999 355.2 26.0999 358.5 40.6999C362.3 57.8999 354.3 70.4999 341.8 80.6999ZM109.1 253L65.9999 296.1L65.9975 296.098C59.1983 289.298 52.1992 282.299 45.4999 275.7C55.4442 265.822 65.4329 255.811 75.377 245.845C80.3328 240.878 85.2774 235.922 90.1999 231C91.7155 232.76 93.249 234.538 94.7917 236.326C99.5599 241.855 104.416 247.484 109.1 253ZM38.3351 287.259C38.361 287.236 38.3833 287.217 38.3999 287.2C53.6999 302.5 68.9999 317.8 84.4999 333.4C81.7999 334.5 78.9999 335.6 76.0999 336.7C73.3513 337.764 70.6027 338.819 67.8567 339.873C61.3115 342.386 54.7809 344.893 48.2999 347.5C46.1999 348.3 44.9999 347.9 43.4999 346.4C40.4499 343.25 37.3749 340.175 34.2999 337.1C31.2249 334.025 28.1499 330.95 25.0999 327.8C24.2999 327 23.6999 325.1 24.0999 324.1C26.9469 316.445 29.874 308.829 32.8051 301.204C34.507 296.776 36.2102 292.345 37.8999 287.9C37.9833 287.567 38.2055 287.372 38.3351 287.259ZM136 286.8C122.8 300.1 109.6 313.3 96.3999 326.5L75.4999 305.6L118.9 262.2C125.6 268.4 132 275.6 136.9 284C137.3 284.6 136.6 286.2 136 286.8ZM292.545 292.944C290.909 293.191 289.423 293.416 288.5 293.5C269.1 293.5 254.9 276.6 258.4 258.5C258.7 257.1 259.5 255.5 260.5 254.4C261.38 253.402 262.254 252.401 263.127 251.401C267.415 246.49 271.681 241.603 276.5 237.2C278.9 235.1 282.9 234.1 286.3 233.8C301.7 232.5 315.3 244.6 317.4 260.9C319.3 275.2 308 290.2 293.5 292.8C293.178 292.848 292.859 292.896 292.545 292.944ZM267 114.3L293.8 87.4999L314.1 107.8C309 112.9 303.825 118.05 298.65 123.2C293.475 128.35 288.3 133.5 283.2 138.6C279.733 133.334 276.089 127.889 272.445 122.445C270.623 119.723 268.8 117 267 114.3ZM233.1 88.3999L264.1 57.3999L284.3 77.5999C281.274 80.5929 278.247 83.5971 275.225 86.5975C269.158 92.6193 263.107 98.6264 257.1 104.5C251.854 101.003 246.382 97.3245 240.958 93.6783C238.317 91.9031 235.687 90.1354 233.1 88.3999ZM298.899 73.2484C290.352 64.7263 281.702 56.1015 273 47.3999L281 39.3999L332 90.3999C330.155 92.0973 327.929 94.067 325.804 95.9473C325.049 96.6148 324.307 97.2711 323.6 97.8999C315.497 89.7967 307.247 81.5715 298.899 73.2484ZM157.3 299.5H185.7C195.2 299.5 204.6 299.5 214.1 299.4C218.8 299.4 221.7 301.7 221.7 305.3C221.7 309 218.8 311.4 214.2 311.4H157.4C152.7 311.4 149.8 309.1 149.8 305.5C149.8 301.9 152.7 299.5 157.3 299.5ZM213.7 335.5H185.7H157.7C152.8 335.5 149.8 333.1 149.9 329.4C150 325.8 152.8 323.5 157.5 323.5H213.9C218.8 323.5 221.8 325.9 221.7 329.6C221.6 333.3 218.7 335.5 213.7 335.5ZM187.2 359.3C177.9 359.8 170.6 355.9 164.9 347.6H206.7C201.9 355.1 195.4 358.9 187.2 359.3ZM18.1999 338.9L32.5999 353.3C31.4766 353.735 30.3479 354.182 29.214 354.63C25.4021 356.136 21.5307 357.667 17.5999 358.9C16.3999 359.3 14.3999 358.8 13.5999 357.9C12.7999 356.9 12.2999 354.8 12.6999 353.6C13.7785 350.229 15.0843 346.904 16.3722 343.625C16.9948 342.039 17.6133 340.464 18.1999 338.9ZM287.4 277.9C297.5 278 305.5 270 305.5 260C305.5 250 297.6 242.1 287.5 242C277.6 242 269.7 249.9 269.6 259.7C269.5 269.9 277.4 277.9 287.4 277.9ZM287.6 254.1C290.7 254.1 293.6 257 293.5 260.1C293.5 263.2 290.5 266 287.5 266C284.4 266 281.5 263.1 281.6 260C281.6 256.9 284.5 254 287.6 254.1Z" fill="url(#paint0_linear_1281_741)"/>
</g>
<defs>
<linearGradient id="paint0_linear_1281_741" x1="1.87458e-07" y1="1.68594e-06" x2="372" y2="371" gradientUnits="userSpaceOnUse">
<stop stop-color="#072142"/>
<stop offset="0.494792" stop-color="#5F1D53"/>
<stop offset="1" stop-color="#FF4D5A"/>
</linearGradient>
<clipPath id="clip0_1281_741">
<rect width="371.5" height="371.3" fill="white"/>
</clipPath>
</defs>
</svg>
