<svg width="40" height="40" viewBox="0 0 40 40" fill="none" xmlns="http://www.w3.org/2000/svg">
<path fill-rule="evenodd" clip-rule="evenodd" d="M20 40C31.0457 40 40 31.0457 40 20C40 8.95432 31.0457 0 20 0C8.95435 0 0 8.95432 0 20C0 31.0457 8.95435 40 20 40ZM6 20C6 12.2711 12.2712 6 20 6C27.7136 6 34 12.2711 34 20C34 27.7289 27.7136 34 20 34C12.2712 34 6 27.7289 6 20ZM31.9502 19.8937C31.9197 17.0846 30.9175 14.4881 29.2473 12.4534C28.9893 12.7874 26.9849 15.3688 22.5813 17.1606C22.8547 17.7224 23.1279 18.3146 23.3708 18.8916C23.4092 18.981 23.4451 19.0705 23.4802 19.1589C23.5288 19.2804 23.5764 19.3998 23.6292 19.5141C27.4983 19.0267 31.3386 19.7747 31.9099 19.8859L31.9502 19.8937ZM27.9263 11.0716C25.8157 9.20392 23.0369 8.06509 20 8.06509C19.0283 8.06509 18.0867 8.17136 17.1909 8.38394L17.2075 8.40656C17.5913 8.92978 19.7263 11.8403 21.655 15.3839C25.9067 13.7896 27.7136 11.3753 27.9263 11.0716ZM19.3472 16.0976C17.3579 12.5748 15.2322 9.61389 14.9133 9.18872C11.5728 10.7679 9.06714 13.8503 8.29272 17.5554H8.32397C8.9939 17.5559 13.8552 17.5601 19.3472 16.0976ZM8.03467 19.6508V20.0152C8.03467 23.0825 9.20386 25.8916 11.1021 28.0022C11.3752 27.5466 14.655 22.1106 20.8201 20.1215C20.8958 20.0988 20.9753 20.076 21.0549 20.0533C21.1348 20.0305 21.2146 20.0076 21.2908 19.9848C20.9871 19.3015 20.6682 18.6182 20.3188 17.9501C14.3513 19.7419 8.55103 19.6659 8.03467 19.6508ZM12.666 29.4447C14.6855 31.0239 17.2363 31.9653 20 31.9653C21.655 31.9653 23.2344 31.6312 24.6768 31.0087C24.4946 29.9609 23.8113 26.3015 22.1257 21.9436C22.1106 21.9512 22.0991 21.955 22.0876 21.9588C22.0764 21.9626 22.0649 21.9664 22.0498 21.974C15.3081 24.3276 12.8784 29.0044 12.666 29.4447ZM24.3428 21.3969C25.9067 25.6942 26.5444 29.1866 26.666 29.9154C29.3535 28.1085 31.2668 25.2386 31.7832 21.9133C31.373 21.7766 28.0933 20.8047 24.3428 21.3969Z" fill="white"/>
</svg>
