<svg xmlns="http://www.w3.org/2000/svg" xmlns:xlink="http://www.w3.org/1999/xlink" viewBox="0 0 900.33 102.91"><defs><style>.cls-1{fill:none;}.cls-2{isolation:isolate;}.cls-3{clip-path:url(#clip-path);}.cls-4,.cls-5,.cls-6,.cls-7,.cls-8,.cls-9{fill-rule:evenodd;}.cls-4{fill:url(#Áåçûìÿííûé_ãðàäèåíò_382);}.cls-5{fill:url(#Áåçûìÿííûé_ãðàäèåíò_382-2);}.cls-6{fill:url(#Áåçûìÿííûé_ãðàäèåíò_382-3);}.cls-7{fill:url(#Áåçûìÿííûé_ãðàäèåíò_382-4);}.cls-8{fill:#92c2c4;opacity:0.5;mix-blend-mode:multiply;}.cls-9{fill:#ffffab;mix-blend-mode:soft-light;}</style><clipPath id="clip-path" transform="translate(0.33 -297.28)"><rect class="cls-1" width="900" height="400"/></clipPath><linearGradient id="Áåçûìÿííûé_ãðàäèåíò_382" x1="468.43" y1="70.3" x2="468.43" gradientUnits="userSpaceOnUse"><stop offset="0" stop-color="#005489"/><stop offset="0.17" stop-color="#024379"/><stop offset="0.48" stop-color="#062a60"/><stop offset="0.77" stop-color="#081b51"/><stop offset="1" stop-color="#09164c"/></linearGradient><linearGradient id="Áåçûìÿííûé_ãðàäèåíò_382-2" x1="660.24" y1="70.55" x2="660.24" y2="14.98" xlink:href="#Áåçûìÿííûé_ãðàäèåíò_382"/><linearGradient id="Áåçûìÿííûé_ãðàäèåíò_382-3" x1="138.31" y1="70.55" x2="138.31" y2="12.12" xlink:href="#Áåçûìÿííûé_ãðàäèåíò_382"/><linearGradient id="Áåçûìÿííûé_ãðàäèåíò_382-4" x1="821.11" y1="70.55" x2="821.11" y2="0.46" xlink:href="#Áåçûìÿííûé_ãðàäèåíò_382"/></defs><g class="cls-2"><g id="Layer_2" data-name="Layer 2"><g id="layer1"><g class="cls-3"><polygon class="cls-4" points="559.46 69.57 562.03 61.57 556.01 58.44 555.09 60.5 562.57 27.16 489 8.26 482.97 60.92 482.97 12.36 453.99 0 452.56 4.26 453.99 40.64 450.69 43.69 444.52 62.27 429.31 52.33 416.97 57.28 419.27 67.5 416.97 66.56 407.65 55.67 386.84 50.59 381.39 65.3 381.39 70.21 374.93 67.5 369.62 70.3 567.25 70.3 564.28 69.16 559.46 69.57"/><polygon class="cls-5" points="573.73 70.49 581.01 47.6 600.53 42.96 602.24 45.02 610.95 23.62 690.1 14.98 694.32 21.99 687.91 67.27 694.32 34.7 736.54 30.19 746.76 35.18 741.88 70.55 573.73 70.49"/><polygon class="cls-6" points="276.34 70.55 266.82 65.01 252.47 65.45 251.22 70.11 245.27 55.4 208.89 48.25 201.69 67.37 189.42 23.8 95.05 15.72 0.32 12.13 0.28 69.8 276.34 70.55"/><polygon class="cls-7" points="741.88 70.55 752.99 34.7 900.33 0.46 900.33 67.9 741.88 70.55"/><polygon class="cls-8" points="690.1 14.98 676.13 50.76 685.6 49.27 681.81 70.55 686.74 70.42 694.32 21.99 690.1 14.98"/><polygon class="cls-8" points="600.53 42.96 588.97 70.55 599.2 70.55 602.24 45.02 600.53 42.96"/><polygon class="cls-8" points="736.54 30.19 731.11 50.76 708.86 70.11 741.88 70.55 746.76 35.18 736.54 30.19"/><polygon class="cls-8" points="808.12 69.37 825.06 57.53 846.89 22.14 825.06 62.29 846.89 65.72 887.58 39.73 896.73 12.07 900.33 8.91 900.33 67.9 808.12 69.37"/><polygon class="cls-8" points="797.41 29.74 788.67 39.14 783.09 56.18 797.41 29.74"/><polygon class="cls-8" points="676.13 50.76 654.4 70.55 658.95 70.55 676.13 50.76"/><polygon class="cls-8" points="562.57 27.16 546.4 23.15 536.05 70.21 551.19 70.78 555.09 60.5 562.57 27.16"/><polygon class="cls-8" points="562.03 61.57 559.97 60.5 557.77 70.21 559.03 70.21 562.03 61.57"/><polygon class="cls-8" points="482.97 12.36 478.37 10.39 472.67 52.49 470.24 70.78 482.97 70.78 482.97 12.36"/><polygon class="cls-8" points="416.97 57.28 420.47 67.41 465.56 70.31 420.47 70.66 416.97 57.28"/><polygon class="cls-8" points="407.65 55.67 403.29 68.93 388.13 68.17 381.39 65.3 381.39 70.21 420.47 70.66 419.27 67.5 416.97 66.56 407.65 55.67"/><polygon class="cls-8" points="453.99 40.64 472.32 55.12 472.56 53.31 453.99 40.64"/><polygon class="cls-8" points="489 25.94 496.97 70.97 495.25 70.78 489 25.94"/><polygon class="cls-8" points="0.32 12.13 28.7 13.39 49.6 69.91 42.24 69.8 22.82 24.48 38.86 69.91 0.28 69.8 0.32 12.13"/><polygon class="cls-8" points="69.06 69.91 56.2 25.52 59.3 27.87 86.49 70.04 69.06 69.91"/><polygon class="cls-8" points="85.51 26.84 96.52 45.11 91.01 29.62 85.51 26.84"/><polygon class="cls-8" points="127.03 70.04 113.97 44.38 130.63 70.46 127.03 70.04"/><polygon class="cls-8" points="208.89 48.25 223.29 52.97 226.82 70.42 201.31 70.11 201.69 67.37 208.89 48.25"/><polygon class="cls-8" points="252.47 65.45 257.14 65.31 259.23 70.42 251.2 70.42 252.47 65.45"/><polygon class="cls-8" points="138.31 19.42 145.31 55.64 148.26 70.2 156.72 70.42 140.38 19.6 138.31 19.42"/><polygon class="cls-8" points="160.76 70.24 199.09 58.14 163.89 70.25 160.76 70.24"/><polygon class="cls-9" points="0 93.53 900.33 97.48 900.33 102.72 0.33 102.91 0 93.53"/></g></g></g></g></svg>