<svg xmlns="http://www.w3.org/2000/svg" xmlns:xlink="http://www.w3.org/1999/xlink" viewBox="0 0 906.67 316.94"><defs><style>.cls-1{fill:none;}.cls-2{isolation:isolate;}.cls-3{clip-path:url(#clip-path);}.cls-12,.cls-4{fill:#005988;}.cls-11,.cls-4{opacity:0.5;mix-blend-mode:multiply;}.cls-5{fill:#4faeff;}.cls-10,.cls-13,.cls-5,.cls-6,.cls-7,.cls-9{fill-rule:evenodd;}.cls-6{fill:url(#Áåçûìÿííûé_ãðàäèåíò_337);}.cls-7,.cls-8{fill:#0a001a;}.cls-9{fill:#0a031f;}.cls-10{fill:#0a1045;}.cls-13{fill:url(#Áåçûìÿííûé_ãðàäèåíò_337-2);}</style><clipPath id="clip-path" transform="translate(0.78 -221.4)"><rect class="cls-1" width="900" height="400"/></clipPath><linearGradient id="Áåçûìÿííûé_ãðàäèåíò_337" x1="162.3" y1="378.96" x2="162.3" y2="367.2" gradientUnits="userSpaceOnUse"><stop offset="0" stop-color="#11084e"/><stop offset="0.04" stop-color="#110748"/><stop offset="0.2" stop-color="#0f0434"/><stop offset="0.39" stop-color="#0f0226"/><stop offset="0.62" stop-color="#0e001e"/><stop offset="1" stop-color="#0e001b"/></linearGradient><linearGradient id="Áåçûìÿííûé_ãðàäèåíò_337-2" x1="698.19" y1="379.15" x2="698.19" y2="361.56" xlink:href="#Áåçûìÿííûé_ãðàäèåíò_337"/></defs><g class="cls-2"><g id="Layer_2" data-name="Layer 2"><g id="layer1"><g class="cls-3"><path class="cls-4" d="M308.9,379.22l16.47-.75c-7,2.58-15.13,3.25-21.42,4.42h0l-10.87-2.81-.39,0,6.35,3.61a114.82,114.82,0,0,1-30,.46v-2.8l-.95,2.67a67.81,67.81,0,0,1-10.38-2A39.86,39.86,0,0,1,247,389.48h0l-11.07-5-4.07.66,8.43,7.06c-.76.26-1.54.5-2.35.73l-8.51-7.79,5.84,8.46a54.87,54.87,0,0,1-9.31,1.29l-1.21,0,1.23,5.17-17-1.47-.74-5.59a68.46,68.46,0,0,1-17.95-7.46l-2.71.14c-6.39,5.33-10.1,1.75-11,.6l-.65,0-.49.43,2.83,9.82-.71.49-2.52-10a101,101,0,0,1-8.71,6.82h0l-.09.07-.7.47-.7.48h0q-2.81,1.86-5.51,3.34h0l0,0a64.15,64.15,0,0,1-6.75,3.23l-.06,0h0c-.64.26-1.27.51-1.9.74l-4.31-10.95-.24.37L148.58,403A45.72,45.72,0,0,1,135,405.31a88.49,88.49,0,0,1-6.77,6.23c2.24,9,4.9,19.85,7.52,31v0h0c2.18,9.31,4.33,18.83,6.17,27.61,0-.72.08-1.45.14-2.18l3.34.6L142.31,465c.13-1.32.28-2.62.44-3.89l1.58,1.1-1.39-2.51c1.05-7.56,2.44-13.51,2.44-13.51s4.82,16.39,3.31,22.76a59.73,59.73,0,0,0,4.79-10.52l2.3,3.78L154,456.9a57.64,57.64,0,0,0,2.15-9.52s5.9,11.5.23,22.88c-2.9,5.81-6.8,8-9.93,8.71a33,33,0,0,1,8.74.91L154,483.2l1.94-3.09a15.94,15.94,0,0,1,4.57,2.14,19.18,19.18,0,0,1,3,2.57l-3.74.88h4.52a23.93,23.93,0,0,1,4.55,8.43,86.66,86.66,0,0,1-12-3.59l-2.8-6.45,1.43,5.91c-4.07-1.66-8.19-3.8-10.94-6.43a41.88,41.88,0,0,1,1.7,9.09l-3.25-.18,3.29,1.1a19.91,19.91,0,0,1-.54,5.38,20.28,20.28,0,0,1-1.39,3.83l-1.87-3.62,1.33,4.7a22.16,22.16,0,0,1-6.07,7.21,113.64,113.64,0,0,1-.37-13.53l4.84-4.81L137.43,496c.07-1.38.19-2.76.34-4.13a8.87,8.87,0,0,1-1.65.95c-7.9,3.46-21.45,3.46-21.45,3.46l10.59-6.35,3.72.43-3.1-.8,6-3.6,4.41,1-2.74-2,6-3.6h0a15.72,15.72,0,0,1-11.07-.12A19.89,19.89,0,0,1,116.69,469l13.6,5.18L131,478v-3.54l10.65,4,.28-.3c0-.35,0-.73,0-1.09-2.18-10.9-5-23.46-7.86-35.6l-1.38-5.81c-2-8.34-3.94-16.3-5.66-23.19a86,86,0,0,1-8,5.66l-5.09-7.08,3.58,8c-.66.4-1.33.79-2,1.16l-10.45-20,7.33,21.61a78.3,78.3,0,0,1-19.85,6.79c-1,18.4-1.88,41.36-1.37,63.79l.9,20.83v.08l.51-.07a148.44,148.44,0,0,1,7.46-19.6l2.11,2.52-1.31-4.16c2.8-5.61,6.14-10.88,9.87-14.1a62.31,62.31,0,0,1-7.25,24.66l-4.18,2,3.19-.33a42.39,42.39,0,0,1-6.8,8.54l6.53-.92v4.08l1.5-4.29,10-1.4-.92,2.42,1.32-2.48,7.46-1.05c-9.87,12.85-22.35,9.9-27.86,7.68l13.18,8.85-2.5,2.83,2.53,1.69,4.18-1.69,13.28,8.9s-20.52,2.89-26-2.28L98.1,535l.67-4.71L97,533.75c-3.15-4.22-5-11.44-5.76-15.39-1.32,2.87-4.58,8.9-9.61,11.46a39,39,0,0,1-9.58,2.82l1.36-2.32L71,532.84c-6.09,1.08-11.93,1.48-11.93,1.48a122.48,122.48,0,0,1,12.55-9.48L75.49,527l1.19-.19-2.33-3.68a61.82,61.82,0,0,1,14.82-6.92l.06,0h0a50.53,50.53,0,0,1-17.65.86c-3.74-.59-7.42-3.73-10.51-7.35l5.53-.4-6.41-.66a72.2,72.2,0,0,1-7.54-11.73l17.85,8.43,1.08,3,.16-2.4,18.54,8.76.21.16.29.25v0l-.29-.23c-16.3-13.33-17.35-37-17.35-37,3.73,3.23,7.07,8.49,9.87,14.1l-1.31,4.16,2.1-2.52a144.29,144.29,0,0,1,6.64,17h0v-.1c-.33-5.55-.56-11.23-.7-16.95h0c-.54-22.63.28-45.86,1.34-64.49-1.45.26-2.91.5-4.42.68a73.53,73.53,0,0,1-19.16-.25,82.41,82.41,0,0,1-18.21,19.85h0l-.06.05c-.55.42-1.11.84-1.68,1.24l-.09.07a59.65,59.65,0,0,1,12.4-2.26l-1.5,4.38,4.76-4.57c3.39-.13,5.63,0,5.63,0a55.85,55.85,0,0,1-8.26,8.52l-2.64-1.36,1.83,2c-2.36,1.72-4.77,2.82-6.7,2.21a26,26,0,0,1-8.55-5.1,54.26,54.26,0,0,0,7.53,10l-1.6,3.9c.13-.14,1.8-2,2.58-2.88.4.4.82.8,1.24,1.2l-2.59,2.06,3.17-1A72.37,72.37,0,0,0,68.11,476s-11.66,3.51-20.46-5.21c-4.6-4.55-5.54-9.31-5.4-12.81-2.19,3.3-5.77,7.84-10,9.68a16.76,16.76,0,0,1-2.37.83l.91-4.08-2.74,4.49a19.89,19.89,0,0,1-9.51-.75s8.07-8.41,16.16-13a9.37,9.37,0,0,1-5.65-2.59c-6.35-6.19-12.33-19.42-12.33-19.42l9.86,7.49,3,2.29.94.72-.18,3.11,1.14-2.38L40,450.87h0A19.34,19.34,0,0,1,35.24,440,21.6,21.6,0,0,1,40,423.12l1.89,17-2.09-.07,2.23,1.24,1.15,10.33.06,0,6.21-4.39h0a81.37,81.37,0,0,0,16.38-18l-.82-.12L60.74,409.9l1.63,18.66-2.14-.44-1.33-19.7H49.7l-1.82,16.1c-3.08-1.09-6.08-2.3-9-3.59l2.63-11-5.6,9.66a159.72,159.72,0,0,1-15.51-8.44c-2.6.43-5,.81-7.17,1.13l-.26.59L4.49,414l.22-.59c-3.38.42-5.22.59-5.22.59l-.27-19.1.69-15.33,324.34-1.19Z" transform="translate(0.78 -221.4)"/><polygon class="cls-5" points="325.46 157.07 0.69 158.41 0.74 161.5 325.46 157.07"/><path class="cls-6" d="M-.09,378.47H324.68S80.39,366.67-.09,361.24Z" transform="translate(0.78 -221.4)"/><path class="cls-7" d="M149.47,370.9-.09,362.36a168.74,168.74,0,0,1,36.44-21.72l5.6,8.88-2.63-10.13q4.35-1.78,9-3.31l1.81,14.8h9.2l1.34-18.1,2.14-.41-1.64,17.15,4.32-17.61a81.4,81.4,0,0,1,21.57-.57,84.25,84.25,0,0,1,25.72,7.12l-7.33,19.86L115.88,340c.69.34,1.36.69,2,1.06l-3.58,7.35,5.08-6.5A83.87,83.87,0,0,1,149.47,370.9Z" transform="translate(0.78 -221.4)"/><path class="cls-7" d="M325.8,378.39l-136.59-5.7s16.31-10.46,37.17-9.43a59.62,59.62,0,0,1,9.32,1.19l-5.85,7.77,8.51-7.15c.81.21,1.6.43,2.36.66l-8.44,6.49,4.07.61,11.08-4.55h0a40,40,0,0,1,10.7,6.87,73.53,73.53,0,0,1,10.37-1.87l1,2.45v-2.57a125,125,0,0,1,30,.42l-6.73,3.52,11.65-2.76h0C310.66,375.41,318.77,376,325.8,378.39Z" transform="translate(0.78 -221.4)"/><polygon class="cls-7" points="0.69 140.96 325.46 157.07 0.69 143.23 0.69 140.96"/><path class="cls-8" d="M94.38,367.1c-.07-.63-7.1-63.71-3.28-113.79l1.42.11c-3.81,49.94,3.21,112.89,3.28,113.52Z" transform="translate(0.78 -221.4)"/><path class="cls-9" d="M73.53,287.09c3.73-3,7.08-7.8,9.88-12.95l-1.31-3.82,2.1,2.31a131.05,131.05,0,0,0,7.57-18.32c.48-1.48.74-2.34.74-2.34-.45.3-.9.62-1.33.94l-.29.21C74.58,265.38,73.53,287.09,73.53,287.09Z" transform="translate(0.78 -221.4)"/><path class="cls-9" d="M92.12,251.82c0,.11.28,1,.73,2.34a132.05,132.05,0,0,0,7.57,18.32l2.1-2.32L101.21,274c2.8,5.16,6.15,10,9.88,13a53.79,53.79,0,0,0-7.25-22.65l-4.18-1.87,3.19.29A39.32,39.32,0,0,0,93.73,253a3.06,3.06,0,0,0-.29-.21C93,252.44,92.57,252.12,92.12,251.82Z" transform="translate(0.78 -221.4)"/><path class="cls-9" d="M91.15,254.23l.62.08,10.8,1.4V252l1.51,3.94,10,1.28-.92-2.21,1.33,2.27,7.45,1c-9.86-11.8-22.34-9.08-27.86-7h0c-.83.31-1.5.6-2,.83-.25.11-.44.21-.58.28l0,0-.22.11h0v.48h0Z" transform="translate(0.78 -221.4)"/><path class="cls-7" d="M53.05,269.6l17.84-7.74L72,259.12l.15,2.2,18.54-8,.22-.16.29-.22.68-.51-.08,0-.26-.07h0l-.07,0-.23-.05c-.38-.09-.91-.21-1.56-.34h0A54.79,54.79,0,0,0,72,251.1c-3.75.54-7.42,3.42-10.52,6.75l5.53.36-6.4.61A65,65,0,0,0,53.05,269.6Z" transform="translate(0.78 -221.4)"/><path class="cls-7" d="M91.18,252.42h0l.28-.1h0l.45-.16,1.12-.39.92-.58h0L107.22,243l-2.5-2.61,2.52-1.54,4.19,1.55,13.27-8.18s-20.52-2.66-26,2.1l-.21.2.67,4.33-1.76-3.16c-3.15,3.88-5,10.52-5.75,14.14h0c-.26,1.16-.42,2-.47,2.36,0,0,0,0,0,0Z" transform="translate(0.78 -221.4)"/><path class="cls-7" d="M75.92,242l1.19.18-2.34,3.38a64.67,64.67,0,0,0,14.83,6.36h.06c.51.13,1,.26,1.55.37l.21,0h.06l.3.06.08,0,.11-.25L92,252l.32-.7s-.23-.55-.66-1.43h0c-1.32-2.63-4.58-8.17-9.62-10.53a41.2,41.2,0,0,0-9.57-2.59l1.36,2.14-2.45-2.32c-6.09-1-11.92-1.36-11.92-1.36A121.74,121.74,0,0,0,72,243.91Z" transform="translate(0.78 -221.4)"/><path class="cls-7" d="M141.54,286s.19.16.52.49l.28.27a48.55,48.55,0,0,1,6.77,8.57A52.16,52.16,0,0,1,153.9,305l2.31-3.47-1.81,4.84a49.89,49.89,0,0,1,2.15,8.74s5.9-10.57.23-21c-2.9-5.34-6.8-7.34-9.94-8h0a13.86,13.86,0,0,0-3.13-.31h-.26a9,9,0,0,0-1,.08A7.62,7.62,0,0,0,141.54,286Z" transform="translate(0.78 -221.4)"/><path class="cls-8" d="M123,368.41,121.6,368c.15-.52,14.78-51.95,21.47-83.92l1.4.29C137.76,316.41,123.12,367.89,123,368.41Z" transform="translate(0.78 -221.4)"/><path class="cls-7" d="M142.57,284.6l.21.22.82.93h0l.09.11h0s1.24.15,3.12.18h0a35.83,35.83,0,0,0,8.75-.83l-1.12-3.05L156.4,285a16.61,16.61,0,0,0,4.58-2,18.61,18.61,0,0,0,3-2.36l-3.73-.81h4.52a21.18,21.18,0,0,0,4.54-7.75,94,94,0,0,0-12,3.31l-2.8,5.92,1.42-5.43c-4.92,1.84-9.92,4.34-12.48,7.49A8.57,8.57,0,0,0,142.57,284.6Z" transform="translate(0.78 -221.4)"/><path class="cls-7" d="M142.23,285.74l.28-.14,1.12-.51h0l.14-.06h0s.5-1.14,1.08-2.92h0a36.15,36.15,0,0,0,1.77-8.6l-3.24.17,3.28-1a16.54,16.54,0,0,0-.53-4.95,18.57,18.57,0,0,0-1.39-3.52l-1.87,3.32,1.32-4.31a21.36,21.36,0,0,0-6.06-6.63,92.25,92.25,0,0,0-.37,12.44l4.84,4.42-4.78-3c.32,5.24,1.23,10.76,3.49,14.13A8.67,8.67,0,0,0,142.23,285.74Z" transform="translate(0.78 -221.4)"/><path class="cls-7" d="M125.69,276l3.71-.39-3.09.73,6,3.31,4.42-.93L134,280.6l6,3.31h0l2.38,1.31.08,0,1,.48h0l.24.11h0s0,0,0-.13a18,18,0,0,0-.3-2.33c-.58-3.09-2.22-8.17-6.86-10-7.9-3.18-21.46-3.18-21.46-3.18Z" transform="translate(0.78 -221.4)"/><path class="cls-9" d="M142.47,296.11l3.34-.55-3.08,3.37c.13,1.21.29,2.4.45,3.57l1.58-1-1.4,2.29c1.06,7,2.45,12.42,2.45,12.42s4.81-15,3.3-20.91l-.06-.22a27.61,27.61,0,0,0-5.33-9.21h0l-.09-.11c-.29-.34-.54-.62-.72-.81l-.32-.34-.06.45c0,.07,0,.14,0,.22s-.05.37-.06.56,0,.34-.05.51,0,.26,0,.39A60.41,60.41,0,0,0,142.47,296.11Z" transform="translate(0.78 -221.4)"/><path class="cls-9" d="M117.12,295.19l13.59-4.76.71-3.5v3.25l10.64-3.72.32-.12,1.33-.47h0l-.14-.11a9.65,9.65,0,0,0-1.05-.7,12.29,12.29,0,0,0-2.51-1.14,17.1,17.1,0,0,0-11.07.1A18.84,18.84,0,0,0,117.12,295.19Z" transform="translate(0.78 -221.4)"/><path class="cls-8" d="M82.33,364.78c-.09-.38-9.37-38.14-40.58-54.65l.67-1.26c31.78,16.82,41.2,55.19,41.3,55.58Z" transform="translate(0.78 -221.4)"/><path class="cls-7" d="M55.16,296.42l-3.17-.9,2.59,1.89c-.43.37-.84.73-1.24,1.11-.78-.86-2.45-2.53-2.59-2.66l1.61,3.59a49.76,49.76,0,0,0-7.53,9.16h0c-.65,1-1,1.64-1,1.64a1.19,1.19,0,0,0-.08-.17h0a2.58,2.58,0,0,1-.2-.43.08.08,0,0,0,0,0l0-.07-.13-.34a14.3,14.3,0,0,1-.74-3.88h0c-.14-3.21.8-7.59,5.4-11.76,8.79-8,20.46-4.79,20.46-4.79A73,73,0,0,0,55.16,296.42Z" transform="translate(0.78 -221.4)"/><path class="cls-7" d="M42.68,305.31h0c1.1,1.52,1.85,2.77,2.15,3.29h0l.15.26-.37,1.66a8.83,8.83,0,0,1-.89,0h-.24a7.42,7.42,0,0,1-1-.08l-.32,0a23.75,23.75,0,0,1-7-2.53C27,303.7,19,296,19,296a21.48,21.48,0,0,1,9.5-.69l2.75,4.12-.92-3.74a17.12,17.12,0,0,1,2.37.76C36.9,298.11,40.49,302.28,42.68,305.31Z" transform="translate(0.78 -221.4)"/><path class="cls-7" d="M43.86,309.39h0l-.28.22-.86.66-.29.21h0l-2,1.38,0,0-8.51,5.94-1.14-2.19.19,2.86-.94.66-3,2.1-9.85,6.89s6-12.16,12.32-17.84a9.84,9.84,0,0,1,5.66-2.39,19.13,19.13,0,0,1,8.28,1.29Z" transform="translate(0.78 -221.4)"/><path class="cls-9" d="M60.07,305.94l-1.82,1.81,2.63-1.25a53.25,53.25,0,0,1,8.26,7.83s-2.24.12-5.63,0l-4.75-4.2,1.49,4a55.87,55.87,0,0,1-16.54-3.5h0l-.23-.1h0c-.21-.07-.42-.16-.62-.25,0,0,.26-.25.73-.66l.28-.25c.26-.23.59-.5,1-.79h0a26.32,26.32,0,0,1,8.55-4.69C55.3,303.36,57.71,304.37,60.07,305.94Z" transform="translate(0.78 -221.4)"/><path class="cls-9" d="M43.86,309.39h0l-.08.68-.07.5v.09l-1.21,10-2.23,1.14,2.1-.06-1.89,15.62a18.84,18.84,0,0,1-4.8-15.54,17.21,17.21,0,0,1,4.76-10,14.44,14.44,0,0,1,1.67-1.42,11.65,11.65,0,0,1,1.44-.9l.31-.15Z" transform="translate(0.78 -221.4)"/><path class="cls-7" d="M189.21,372.69-.35,363.3l.26-17.56s46.83,4,103.22,21.65c0,0,17-20.1,45.87-11.56l-3.18,12.52,5.1-11.92c7.8,2.61,16.43,7.3,25.78,15C176.7,371.44,180.93,365.35,189.21,372.69Z" transform="translate(0.78 -221.4)"/><polygon class="cls-7" points="175.94 149.9 178.7 139.84 179.41 140.29 176.4 149.9 175.94 149.9"/><path class="cls-7" d="M47.87,366.68s6.2-11.24,26.82,1.14Z" transform="translate(0.78 -221.4)"/><path class="cls-7" d="M80.9,376.92s4.39-2.55,7.15,0Z" transform="translate(0.78 -221.4)"/><path class="cls-7" d="M90.67,376.36s8.32-7.64,16-.57Z" transform="translate(0.78 -221.4)"/><polygon class="cls-7" points="304.85 156.99 0.69 157.07 0.69 158.41 304.85 156.99"/><path class="cls-10" d="M51.47,363.47S51.1,366.2,57.4,367s15-.53,15-.53S60.53,358.85,51.47,363.47Z" transform="translate(0.78 -221.4)"/><path class="cls-10" d="M91.36,375.79s12.35.4,14.61-.59C106,375.2,100.42,369.8,91.36,375.79Z" transform="translate(0.78 -221.4)"/><g class="cls-11"><path class="cls-12" d="M685.26,376.39l-16.7-.74S672.49,375.75,685.26,376.39Z" transform="translate(0.78 -221.4)"/><path class="cls-12" d="M897.19,392.83c-1.29,0-2.54,0-3.76,0-4.31,7.74-9.31,13.31-14.77,17.13l-6.29-12,5.09,12.81a36.36,36.36,0,0,1-3.91,2.21l-8.08-23.47,6.2,24.34a41.42,41.42,0,0,1-17.44,3.1c.42,6.12.77,12.75,1,19.62h0v0a329.85,329.85,0,0,1-.7,35.58,91.8,91.8,0,0,1,6.64-12.55l2.11,1.86-1.32-3.07c2.8-4.15,6.15-8,9.88-10.42,0,0-1,17.46-17.35,27.32l-.3.17h0l.3-.18.21-.12,18.54-6.48.15,1.78,1.09-2.2,17.84-6.23a53.58,53.58,0,0,1-7.54,8.67l-6.4.48,5.53.3c-3.1,2.67-6.77,5-10.52,5.43a68,68,0,0,1-17.64-.64h0a73.31,73.31,0,0,1,14.83,5.12l-2.34,2.71,1.19.15,3.89-1.57a124.94,124.94,0,0,1,12.54,7s-5.83-.29-11.92-1.09l-2.45-1.86,1.36,1.71a49.46,49.46,0,0,1-9.57-2.08c-5-1.89-8.3-6.35-9.62-8.47-.8,2.92-2.6,8.26-5.75,11.37l-1.76-2.53.67,3.48-.21.16c-5.44,3.82-26,1.69-26,1.69l13.27-6.58,4.19,1.25,2.52-1.25-2.5-2.09,13.19-6.55c-5.52,1.64-18,3.83-27.86-5.67l7.45.78,1.33,1.83-.92-1.79,10,1,1.51,3.17v-3l6.52.68a35.85,35.85,0,0,1-6.8-6.32l3.19.25-4.17-1.51a37.16,37.16,0,0,1-7.26-18.22c3.73,2.38,7.08,6.28,9.88,10.42l-1.31,3.08,2.1-1.87a95.08,95.08,0,0,1,7.47,14.49l.5.05a305,305,0,0,0,1-32l-.16-6.85c-.21-6.51-.54-12.78-.94-18.58a66.32,66.32,0,0,1-16.58-3.25l4-12.61-2.4-1.33-13,9.39c-1.06-.49-2.1-1-3.14-1.52a78.32,78.32,0,0,1-7.1,8.18h0l-1.19,1.16-.05.06h0c-.42.4-.85.8-1.29,1.19h0l-.11.1c-.47.43-1,.86-1.45,1.28l0,0h0a71.46,71.46,0,0,1-13.31,9.08A78.88,78.88,0,0,1,809.51,427l-1.5,3.23,2.77-.35,2-3c3.39-.1,5.63,0,5.63,0a50.39,50.39,0,0,1-8.26,6.31l-2.64-1,1.83,1.45c-2.36,1.27-4.77,2.08-6.7,1.63a29.11,29.11,0,0,1-8.55-3.77,44,44,0,0,0,7.53,7.36l-1.6,2.89c.14-.11,1.8-1.45,2.58-2.14.4.3.82.6,1.24.89L801.24,442l2.16,1.55,3.21-1.26a54.76,54.76,0,0,0,11.19,5.15s-11.67,2.59-20.46-3.85c-4.6-3.36-5.55-6.88-5.41-9.46-2.18,2.44-5.77,5.79-10,7.15a19.68,19.68,0,0,1-2.37.61l.91-3-2.74,3.31a26.31,26.31,0,0,1-9.51-.55,85.41,85.41,0,0,1,16.16-9.6,11.24,11.24,0,0,1-5.65-1.92c-6.34-4.57-12.33-14.35-12.33-14.35l9.86,5.54-.49,1.9,2.72,2,.77-2.23,1,.53-.19,2.3,1.14-1.76,8.51,4.78h0a13,13,0,0,1-4.75-8c-1.39-7.71,4.8-12.5,4.8-12.5l1.88,12.56-2.09-.05,2.23.92,1.15,7.63A69.86,69.86,0,0,0,809.16,419l2.76-2.47,1-1,.58-.57a76.42,76.42,0,0,0,6.9-8,151.82,151.82,0,0,1-14.16-8.33l-.51,2a37.34,37.34,0,0,1-10.29-3.49l3.21-3.8-.38-.28-3.63,3.67c-9.15-4.8-16.23-12.26-18.76-15.13l-1.09-.07c-.26,1.93-1.5,5.16-7.18-.44h0l2.75,11.5h-2.17l-1.14-11.53H767c-.11,1.85-.93,7.62-6.73,10.24l.05.64-1.62.39v-.44a15.63,15.63,0,0,1-3,.58c-.11,1.67-.27,3.51-.47,5.5h0V398c-.13,1.24-.28,2.54-.45,3.89h0a121.63,121.63,0,0,1-6.57,27.34h0l0,0c-.4,1.06-.83,2.11-1.28,3.15l0,.1h0a60.06,60.06,0,0,1-10.06,16.27l9.39-2.64v2.62l.7-2.82,13.6-3.83s-2.6,6.58-11.82,9a20.92,20.92,0,0,1-11.07.08h0l6,2.67-2.74,1.49,4.41-.75,6,2.66-3.09.59,3.71-.32,10.6,4.7s-13.56,0-21.46-2.56c-4.64-1.5-6.28-5.59-6.87-8.07-2.55,2.53-7.55,4.53-12.48,6l1.43-4.37-2.8,4.77a114.06,114.06,0,0,1-12,2.65,16.6,16.6,0,0,1,4.55-6.23h4.52l-3.73-.65a17.84,17.84,0,0,1,2.95-1.9,18.82,18.82,0,0,1,4.57-1.58l1.94,2.28L722,450.16a43.77,43.77,0,0,1,8.74-.67,14.71,14.71,0,0,1-9.93-6.44c-5.67-8.41.23-16.9.23-16.9a34.14,34.14,0,0,0,2.15,7l-1.81,3.89,2.31-2.79a39.64,39.64,0,0,0,4.79,7.77c-1.52-4.71,3.3-16.82,3.3-16.82a95.42,95.42,0,0,1,2.44,10l-1.39,1.85,1.58-.81c.16.94.32,1.9.44,2.87l-3.07,2.71,3.34-.44a40,40,0,0,1,.15,7.14A58.42,58.42,0,0,0,745.63,432l1.23-3a123.59,123.59,0,0,0,6.81-29.48L754,396c.11-1.21.2-2.34.27-3.41-3.52.13-8-.53-13.72-2.46l5.47-6.23-10.7,4.25a132.07,132.07,0,0,1-13.29-6.53h0l-.2-.12c-1.9-1.05-3.87-2.19-5.93-3.44l-.75,0-11.95,9.15-2.66-.73L715.09,378c-13.15-.74-22.83-1.25-29.83-1.6l74.06,3.29h0l146.57-3.29-5.57,10.75v5.61S899.21,392.84,897.19,392.83Z" transform="translate(0.78 -221.4)"/><path class="cls-12" d="M664.86,383.71h0c0,.52-.08,1-.13,1.56v.05h0c-.43,4.51-1.39,8.64-3.47,8.33a1.19,1.19,0,0,1-.69-.26c-1.21-.65-2.46-2.45-3.63-4.73-.45-.79-.91-1.65-1.36-2.57h0l-.06-.14c-.1-.19-.19-.39-.28-.58l0-.05h0a47.9,47.9,0,0,1-3.31-9.68h0c-.37-1.18-.58-1.92-.58-1.92l13.7.62s0,.45,0,1.2h0v.54h0C665.08,377.86,665.06,380.76,664.86,383.71Z" transform="translate(0.78 -221.4)"/><path class="cls-12" d="M806.43,371.87h25.85C817.2,379.84,806.43,371.87,806.43,371.87Z" transform="translate(0.78 -221.4)"/><path class="cls-12" d="M793.77,371.87h6.67S796.46,374.71,793.77,371.87Z" transform="translate(0.78 -221.4)"/><path class="cls-12" d="M639.44,382.59l0,0c-.75.64-1.53,1.28-2.34,1.91l-.1.08h0c-5.84,4.59-13,8.89-19.45,9a7.92,7.92,0,0,1-2.06,0c-6.47-.84-15.67-7.48-21.47-15.57l-.05-.07h0a34.27,34.27,0,0,1-3.43-5.89h0c-.34-.58-.52-.92-.52-.92l58.74,2.38a97.53,97.53,0,0,1-9.29,9Z" transform="translate(0.78 -221.4)"/><path class="cls-12" d="M555.36,381.52h0l-1.83.75-.08,0h0c-4.56,1.81-10.15,3.5-15.18,3.56a12.38,12.38,0,0,1-1.61,0,37.68,37.68,0,0,1-16.76-6.12l0,0h0a16.09,16.09,0,0,1-2.67-2.31h0c-.27-.23-.41-.37-.41-.37l45.85.94a74.36,74.36,0,0,1-7.25,3.53Z" transform="translate(0.78 -221.4)"/></g><path class="cls-8" d="M850.67,357l-1.41-.16c.07-.63,7.09-63.58,3.27-113.52l1.43-.11C857.78,293.28,850.75,356.36,850.67,357Z" transform="translate(0.78 -221.4)"/><path class="cls-9" d="M871.52,277c-3.73-3-7.07-7.8-9.87-13L863,260.2l-2.1,2.32a129.82,129.82,0,0,1-7.57-18.32c-.49-1.48-.75-2.34-.75-2.34.46.3.91.62,1.34.94l.29.21C870.47,255.27,871.52,277,871.52,277Z" transform="translate(0.78 -221.4)"/><path class="cls-9" d="M852.94,241.71c0,.11-.28.95-.74,2.34a130.8,130.8,0,0,1-7.57,18.32l-2.1-2.32,1.31,3.82c-2.8,5.16-6.14,10-9.87,13a53.68,53.68,0,0,1,7.25-22.66l4.18-1.86-3.19.29a39.29,39.29,0,0,1,9.11-9.74c.1-.07.19-.15.29-.21C852,242.33,852.49,242,852.94,241.71Z" transform="translate(0.78 -221.4)"/><path class="cls-9" d="M853.9,244.12l-.61.08-10.81,1.4v-3.74L841,245.8l-10,1.28.92-2.21-1.32,2.27-7.46,1c9.87-11.8,22.35-9.08,27.86-7h0c.82.31,1.49.6,2,.83.25.11.45.21.58.28l0,0,.21.11h0v.48h0Z" transform="translate(0.78 -221.4)"/><path class="cls-7" d="M892,259.49l-17.85-7.74L873.08,249l-.16,2.2-18.54-8-.21-.16-.29-.22-.68-.51.07,0,.26-.07h0l.06,0,.24,0c.37-.09.9-.21,1.56-.34h0a54.83,54.83,0,0,1,17.65-.79c3.74.54,7.42,3.42,10.51,6.75l-5.53.36,6.41.61A65.69,65.69,0,0,1,892,259.49Z" transform="translate(0.78 -221.4)"/><path class="cls-7" d="M853.87,242.31h0l-.28-.1h0l-.45-.16-1.11-.39-.92-.58h0l-13.18-8.13,2.5-2.61-2.53-1.54-4.18,1.55-13.28-8.18s20.52-2.66,26,2.1l.22.2-.67,4.33,1.75-3.16c3.15,3.88,5,10.52,5.76,14.14h0c.26,1.16.41,2,.47,2.36,0,0,0,0,0,0S853.87,242.31,853.87,242.31Z" transform="translate(0.78 -221.4)"/><path class="cls-7" d="M869.14,231.85,868,232l2.33,3.38a64.6,64.6,0,0,1-14.82,6.36h-.06c-.52.13-1,.26-1.55.37l-.21,0h-.07l-.3.06-.07,0-.12-.25-.06-.14-.32-.7s.23-.55.67-1.43h0c1.32-2.63,4.58-8.17,9.61-10.53a41.43,41.43,0,0,1,9.58-2.59l-1.36,2.14,2.44-2.32c6.09-1,11.93-1.36,11.93-1.36A121.27,121.27,0,0,1,873,233.8Z" transform="translate(0.78 -221.4)"/><path class="cls-13" d="M900,378.4H496.35S756.09,361.18,900,352.65Z" transform="translate(0.78 -221.4)"/><path class="cls-7" d="M900,354.14l-231.77,12.8s34.66-1.16,231.77-17.25Z" transform="translate(0.78 -221.4)"/><path class="cls-7" d="M718.44,275.05l-.51.48-.29.28a49.12,49.12,0,0,0-6.76,8.57,52.15,52.15,0,0,0-4.8,9.67l-2.3-3.48,1.81,4.84a50.33,50.33,0,0,0-2.15,8.74s-5.9-10.56-.23-21c2.9-5.34,6.8-7.34,9.93-8h0a14.45,14.45,0,0,1,3.12-.32h.26c.4,0,.75.05,1,.08A8.22,8.22,0,0,1,718.44,275.05Z" transform="translate(0.78 -221.4)"/><path class="cls-8" d="M738.41,357.3l-1.42,0c0-.57.65-57.49-21.32-83.49l1.09-.93C739.07,299.28,738.42,356.73,738.41,357.3Z" transform="translate(0.78 -221.4)"/><path class="cls-7" d="M717.42,273.68a2.46,2.46,0,0,0-.21.22l-.82.92h0l-.1.12h0s-1.24.15-3.12.18h0a35.79,35.79,0,0,1-8.74-.83l1.12-3.05-1.94,2.84a17,17,0,0,1-4.57-2,18.17,18.17,0,0,1-3-2.36l3.73-.81h-4.52a21.37,21.37,0,0,1-4.55-7.75,92.91,92.91,0,0,1,12,3.3l2.8,5.93L704.09,265c4.92,1.84,9.93,4.33,12.48,7.48A8.49,8.49,0,0,1,717.42,273.68Z" transform="translate(0.78 -221.4)"/><path class="cls-7" d="M734.3,265.1l-4.84-1,4.22,1.35-6,3.31-4.41-.93,2.74,1.85L720,273h0l-2.38,1.31-.08,0-1,.48h0l-.25.12h0v-.14a20.42,20.42,0,0,1,.3-2.33c.59-3.08,2.23-8.16,6.87-10,7.9-3.18,21.45-3.18,21.45-3.18Z" transform="translate(0.78 -221.4)"/><path class="cls-9" d="M717.52,285.19l-3.34-.55,3.07,3.37c-.13,1.21-.28,2.4-.44,3.57l-1.58-1,1.39,2.3c-1,6.95-2.44,12.42-2.44,12.42s-4.82-15.06-3.3-20.91l.06-.23a27.31,27.31,0,0,1,5.33-9.2h0l.1-.12c.29-.34.53-.61.71-.8s.33-.34.33-.34,0,.3.05.45a1.52,1.52,0,0,1,0,.21c0,.19,0,.38.06.56s0,.34.05.52,0,.26,0,.39A59.16,59.16,0,0,1,717.52,285.19Z" transform="translate(0.78 -221.4)"/><path class="cls-9" d="M742.87,284.27l-13.6-4.76-.7-3.51v3.26l-10.64-3.73-.32-.11-1.34-.47h0l.15-.12a10.08,10.08,0,0,1,1-.69A12.82,12.82,0,0,1,720,273a17,17,0,0,1,11.07.1A18.87,18.87,0,0,1,742.87,284.27Z" transform="translate(0.78 -221.4)"/><path class="cls-8" d="M831.3,353.72c-.09-.38-9.37-38.14-40.57-54.65l.66-1.26c31.79,16.82,41.21,55.2,41.3,55.58Z" transform="translate(0.78 -221.4)"/><path class="cls-7" d="M806.32,284.11l-3.2-1.58L801,284.47l2.59,1.88c-.43.37-.84.74-1.24,1.11-.78-.85-2.45-2.52-2.59-2.65l1.61,3.58a50.1,50.1,0,0,0-7.53,9.16h0c-.65,1-1,1.64-1,1.64a1.19,1.19,0,0,0-.08-.17h0a3.28,3.28,0,0,1-.2-.44.08.08,0,0,0,0,0l0-.07q-.06-.15-.12-.33a14,14,0,0,1-.75-3.89h0c-.14-3.22.8-7.59,5.4-11.77,8.8-8,20.46-4.79,20.46-4.79A51.32,51.32,0,0,0,806.32,284.11Z" transform="translate(0.78 -221.4)"/><path class="cls-7" d="M791.65,294.26h0c1.1,1.53,1.85,2.77,2.15,3.29h0l.15.26-.37,1.66a8.83,8.83,0,0,1-.89,0h-.24a9.3,9.3,0,0,1-1.05-.09l-.31,0a23.66,23.66,0,0,1-7-2.52c-8.09-4.22-16.16-11.94-16.16-11.94a21.39,21.39,0,0,1,9.5-.7l2.75,4.12-.91-3.74a17,17,0,0,1,2.36.76C785.87,287.06,789.46,291.22,791.65,294.26Z" transform="translate(0.78 -221.4)"/><path class="cls-7" d="M792.83,298.33h0l-.28.22-.86.66-.29.21h0l-2,1.39h0l-8.5,5.94-1.15-2.18.19,2.86-.94.65-.77-2.77-2.73,2.5.49,2.38-9.85,6.88s6-12.16,12.32-17.84a9.76,9.76,0,0,1,5.66-2.38,18.9,18.9,0,0,1,8.29,1.29Z" transform="translate(0.78 -221.4)"/><path class="cls-9" d="M809,294.89l-1.82,1.8,2.64-1.25a54,54,0,0,1,8.25,7.83s-2.24.13-5.63,0l-2-3.75-2.77-.45,1.49,4a56.15,56.15,0,0,1-16.54-3.49h0l-.23-.1h0l-.62-.26s.26-.25.73-.66a3.48,3.48,0,0,1,.28-.24c.26-.23.59-.51,1-.8h0a26.5,26.5,0,0,1,8.55-4.69C804.27,292.3,806.68,293.31,809,294.89Z" transform="translate(0.78 -221.4)"/><path class="cls-9" d="M792.83,298.33v0l-.08.68-.07.49v.09l-1.21,10-2.23,1.14,2.1-.06-1.89,15.62a18.84,18.84,0,0,1-4.8-15.54,17.15,17.15,0,0,1,4.76-10,15.73,15.73,0,0,1,1.68-1.43,12.25,12.25,0,0,1,1.43-.9l.31-.15Z" transform="translate(0.78 -221.4)"/><path class="cls-7" d="M896.61,354.33l-113.38,6.08s18.47-21.86,41.25-35.05l13,11.68,2.4-1.65-4-15.69c11.91-4.77,24.32-6.13,35.46-.26l-6.2,30.25,8.07-29.18a36.11,36.11,0,0,1,3.91,2.75l-5.09,15.93,6.3-14.91C885.36,330.36,891.61,340,896.61,354.33Z" transform="translate(0.78 -221.4)"/><path class="cls-7" d="M774.61,361l-59.43,3.27a141.87,141.87,0,0,1,19.89-12.87l11.86,5.85L740.3,349c27-11.3,26.43,12,26.43,12C774.91,350.4,774.61,361,774.61,361Z" transform="translate(0.78 -221.4)"/><path class="cls-7" d="M900,345.68v8.46L774.61,361s8.24-12.77,19.78-20.29l7.91,9.94-7.12-10.45a32.19,32.19,0,0,1,10.3-4.34l3.42,16.75,12.34.64,1.48-15.72c1.66.51,3.32,1.1,5,1.73l-3.23,11.39,5.82-10.34A159.27,159.27,0,0,1,857,355.26C881.45,343.9,900,345.68,900,345.68Z" transform="translate(0.78 -221.4)"/><polygon class="cls-7" points="715.96 142.91 703.71 131.25 701.05 132.16 715.96 142.91"/><polygon class="cls-7" points="767.51 139.57 768.71 124.48 770.88 124.48 767.97 139.64 767.51 139.57"/><path class="cls-7" d="M516.76,377.05s27.14-12.87,45.85-.14Z" transform="translate(0.78 -221.4)"/><path class="cls-7" d="M564,377.05s5.21-3.69,8.59,0Z" transform="translate(0.78 -221.4)"/><path class="cls-7" d="M589.69,372.43s9.94-23.31,24.22-27.47,34.52,24.51,34.52,24.51Z" transform="translate(0.78 -221.4)"/><path class="cls-7" d="M651,369.32s5.46-23.94,9.94-24.77,3.76,24,3.76,24Z" transform="translate(0.78 -221.4)"/><path class="cls-7" d="M806.14,371.64s10.77-9.91,25.85,0Z" transform="translate(0.78 -221.4)"/><path class="cls-7" d="M800.16,371.64s-4-3.53-6.67,0Z" transform="translate(0.78 -221.4)"/><polygon class="cls-7" points="900.82 155.51 499.74 156.83 900.82 157 900.82 155.51"/><path class="cls-10" d="M590.21,371.29s24.41-.09,34.41-5.76-1.44-22.29-9.46-21S595,358.15,590.21,371.29Z" transform="translate(0.78 -221.4)"/><path class="cls-10" d="M651.61,366.94s6.58,1.29,10.27-4.3.89-17.91-.9-18.09S653.67,355.31,651.61,366.94Z" transform="translate(0.78 -221.4)"/><path class="cls-10" d="M518.67,376.23s34.75,1.26,40.82-1.17C559.49,375.06,544.7,365.25,518.67,376.23Z" transform="translate(0.78 -221.4)"/><polygon class="cls-5" points="900.82 157 497.13 157 481.99 157 900.82 158.56 900.82 157"/></g></g></g></g></svg>