<svg width="940" height="624" viewBox="0 0 940 624" fill="none" xmlns="http://www.w3.org/2000/svg">
<path d="M372.992 289.296H377.648V319.536H395.264V324H372.992V289.296ZM400.019 313.872C400.019 311.888 400.483 310.096 401.411 308.496C402.371 306.896 403.683 305.632 405.347 304.704C407.011 303.776 408.899 303.312 411.011 303.312C413.187 303.312 415.091 303.776 416.723 304.704C418.355 305.632 419.619 306.896 420.515 308.496C421.411 310.096 421.859 311.888 421.859 313.872C421.859 315.856 421.411 317.664 420.515 319.296C419.619 320.896 418.339 322.16 416.675 323.088C415.043 324.016 413.139 324.48 410.963 324.48C408.851 324.48 406.963 324.048 405.299 323.184C403.667 322.288 402.371 321.056 401.411 319.488C400.483 317.888 400.019 316.016 400.019 313.872ZM404.483 313.92C404.483 315.2 404.771 316.368 405.347 317.424C405.923 318.448 406.691 319.264 407.651 319.872C408.643 320.48 409.731 320.784 410.915 320.784C412.163 320.784 413.267 320.48 414.227 319.872C415.219 319.264 415.987 318.448 416.531 317.424C417.075 316.368 417.347 315.2 417.347 313.92C417.347 312.64 417.075 311.488 416.531 310.464C415.987 309.408 415.219 308.576 414.227 307.968C413.267 307.328 412.163 307.008 410.915 307.008C409.699 307.008 408.595 307.328 407.603 307.968C406.643 308.608 405.875 309.456 405.299 310.512C404.755 311.536 404.483 312.672 404.483 313.92ZM436.16 324.48C434.304 324.48 432.608 324.08 431.072 323.28C429.568 322.48 428.368 321.312 427.472 319.776C426.608 318.208 426.176 316.304 426.176 314.064C426.176 311.856 426.64 309.952 427.568 308.352C428.496 306.72 429.728 305.472 431.264 304.608C432.832 303.744 434.544 303.312 436.4 303.312C438.256 303.312 439.824 303.744 441.104 304.608C442.384 305.44 443.36 306.432 444.032 307.584L443.744 308.352L444.176 304.128H448.304V324H443.84V318.816L444.32 319.968C444.192 320.288 443.904 320.704 443.456 321.216C443.04 321.696 442.464 322.192 441.728 322.704C441.024 323.216 440.208 323.648 439.28 324C438.352 324.32 437.312 324.48 436.16 324.48ZM437.36 320.784C438.48 320.784 439.488 320.576 440.384 320.16C441.28 319.744 442.016 319.168 442.592 318.432C443.2 317.664 443.616 316.752 443.84 315.696V311.808C443.584 310.848 443.136 310.016 442.496 309.312C441.856 308.576 441.088 308.016 440.192 307.632C439.296 307.216 438.304 307.008 437.216 307.008C436.032 307.008 434.944 307.296 433.952 307.872C432.96 308.448 432.16 309.248 431.552 310.272C430.976 311.296 430.688 312.496 430.688 313.872C430.688 315.152 430.992 316.32 431.6 317.376C432.208 318.432 433.024 319.264 434.048 319.872C435.072 320.48 436.176 320.784 437.36 320.784ZM464.093 324.48C462.269 324.48 460.605 324.048 459.101 323.184C457.629 322.288 456.461 321.04 455.597 319.44C454.733 317.808 454.301 315.936 454.301 313.824C454.301 311.616 454.749 309.728 455.645 308.16C456.573 306.592 457.821 305.392 459.389 304.56C460.957 303.728 462.717 303.312 464.669 303.312C466.237 303.312 467.725 303.648 469.133 304.32C470.573 304.992 471.693 305.92 472.493 307.104L472.301 308.688V286.848H476.717V324H472.253V319.056L472.733 320.304C471.805 321.52 470.605 322.528 469.133 323.328C467.661 324.096 465.981 324.48 464.093 324.48ZM465.485 320.688C466.669 320.688 467.725 320.48 468.653 320.064C469.581 319.616 470.349 319.008 470.957 318.24C471.565 317.472 471.997 316.56 472.253 315.504V311.76C471.997 310.8 471.533 309.968 470.861 309.264C470.221 308.528 469.437 307.952 468.509 307.536C467.613 307.088 466.605 306.864 465.485 306.864C464.269 306.864 463.149 307.168 462.125 307.776C461.133 308.352 460.333 309.152 459.725 310.176C459.117 311.2 458.813 312.384 458.813 313.728C458.813 315.04 459.117 316.224 459.725 317.28C460.333 318.304 461.149 319.136 462.173 319.776C463.197 320.384 464.301 320.688 465.485 320.688ZM484.482 304.128H488.946V324H484.482V304.128ZM484.146 296.928C484.146 296.224 484.418 295.632 484.962 295.152C485.538 294.672 486.162 294.432 486.834 294.432C487.506 294.432 488.098 294.672 488.61 295.152C489.154 295.632 489.426 296.224 489.426 296.928C489.426 297.664 489.154 298.272 488.61 298.752C488.098 299.2 487.506 299.424 486.834 299.424C486.162 299.424 485.538 299.184 484.962 298.704C484.418 298.224 484.146 297.632 484.146 296.928ZM500.653 304.128L501.037 308.976L500.845 308.208C501.485 306.736 502.525 305.568 503.965 304.704C505.405 303.808 507.069 303.36 508.957 303.36C510.845 303.36 512.381 303.92 513.565 305.04C514.781 306.128 515.405 307.552 515.437 309.312V324H510.925V310.896C510.893 309.808 510.573 308.928 509.965 308.256C509.389 307.552 508.477 307.2 507.229 307.2C506.077 307.2 505.037 307.52 504.109 308.16C503.181 308.8 502.445 309.68 501.901 310.8C501.389 311.92 501.133 313.216 501.133 314.688V324H496.669V304.128H500.653ZM532.753 333.84C531.281 333.84 529.985 333.664 528.865 333.312C527.745 332.992 526.721 332.528 525.793 331.92C524.897 331.312 524.033 330.624 523.201 329.856L525.793 326.832C526.849 327.824 527.921 328.592 529.009 329.136C530.097 329.68 531.313 329.952 532.657 329.952C534.161 329.952 535.425 329.696 536.449 329.184C537.505 328.704 538.305 328.016 538.849 327.12C539.393 326.256 539.665 325.248 539.665 324.096L539.713 318.72L540.097 319.584C539.521 320.96 538.481 322.128 536.977 323.088C535.473 324.016 533.649 324.48 531.505 324.48C529.681 324.48 528.001 324.016 526.465 323.088C524.961 322.16 523.745 320.912 522.817 319.344C521.921 317.744 521.473 315.952 521.473 313.968C521.473 311.888 521.953 310.064 522.913 308.496C523.873 306.896 525.137 305.632 526.705 304.704C528.273 303.776 529.985 303.312 531.841 303.312C533.601 303.312 535.201 303.68 536.641 304.416C538.113 305.12 539.185 306.032 539.857 307.152L539.617 307.968L540.097 304.128H544.177V324.144C544.177 325.936 543.713 327.568 542.785 329.04C541.857 330.512 540.545 331.68 538.849 332.544C537.153 333.408 535.121 333.84 532.753 333.84ZM525.937 313.872C525.937 315.152 526.241 316.32 526.849 317.376C527.457 318.432 528.273 319.264 529.297 319.872C530.353 320.48 531.521 320.784 532.801 320.784C533.985 320.784 535.041 320.576 535.969 320.16C536.929 319.712 537.729 319.12 538.369 318.384C539.009 317.616 539.457 316.736 539.713 315.744V311.808C539.425 310.848 538.945 310.016 538.273 309.312C537.601 308.576 536.801 308.016 535.873 307.632C534.945 307.216 533.921 307.008 532.801 307.008C531.521 307.008 530.353 307.296 529.297 307.872C528.273 308.448 527.457 309.264 526.849 310.32C526.241 311.344 525.937 312.528 525.937 313.872ZM549.632 321.456C549.632 320.752 549.888 320.16 550.4 319.68C550.944 319.168 551.536 318.912 552.176 318.912C552.752 318.912 553.296 319.168 553.808 319.68C554.352 320.16 554.624 320.752 554.624 321.456C554.624 322.224 554.352 322.848 553.808 323.328C553.296 323.776 552.752 324 552.176 324C551.536 324 550.944 323.776 550.4 323.328C549.888 322.848 549.632 322.224 549.632 321.456ZM557.695 321.456C557.695 320.752 557.951 320.16 558.463 319.68C559.007 319.168 559.599 318.912 560.239 318.912C560.815 318.912 561.359 319.168 561.871 319.68C562.415 320.16 562.687 320.752 562.687 321.456C562.687 322.224 562.415 322.848 561.871 323.328C561.359 323.776 560.815 324 560.239 324C559.599 324 559.007 323.776 558.463 323.328C557.951 322.848 557.695 322.224 557.695 321.456ZM565.757 321.456C565.757 320.752 566.013 320.16 566.525 319.68C567.069 319.168 567.661 318.912 568.301 318.912C568.877 318.912 569.421 319.168 569.933 319.68C570.477 320.16 570.749 320.752 570.749 321.456C570.749 322.224 570.477 322.848 569.933 323.328C569.421 323.776 568.877 324 568.301 324C567.661 324 567.069 323.776 566.525 323.328C566.013 322.848 565.757 322.224 565.757 321.456Z" fill="white"/>
</svg>
