<svg width="940" height="624" viewBox="0 0 940 624" fill="none" xmlns="http://www.w3.org/2000/svg">
<g clip-path="url(#clip0_1187_732)">
<g filter="url(#filter0_d_1187_732)">
<path d="M76.5772 214.729L94.6243 172.015H94.9638L113.011 214.729H106.109L92.9837 181.463L97.3399 178.578L82.5175 214.729H76.5772ZM87.5526 199.34H102.149L104.242 204.545H85.7422L87.5526 199.34ZM119.075 191.024H124.902V214.729H119.075V191.024ZM118.736 182.538C118.736 181.633 119.094 180.878 119.811 180.275C120.527 179.672 121.301 179.37 122.13 179.37C122.998 179.37 123.771 179.672 124.45 180.275C125.129 180.878 125.468 181.633 125.468 182.538C125.468 183.443 125.129 184.197 124.45 184.801C123.771 185.367 122.998 185.65 122.13 185.65C121.301 185.65 120.527 185.367 119.811 184.801C119.094 184.197 118.736 183.443 118.736 182.538ZM138.976 191.024L139.485 196.116L139.259 195.72C140.164 193.947 141.409 192.57 142.993 191.59C144.577 190.571 146.406 190.062 148.48 190.062C149.763 190.062 150.913 190.27 151.931 190.685C152.988 191.099 153.855 191.684 154.534 192.438C155.213 193.193 155.647 194.136 155.835 195.267L155.552 195.437C156.495 193.777 157.74 192.476 159.286 191.533C160.87 190.553 162.549 190.062 164.321 190.062C166.622 190.062 168.451 190.722 169.809 192.042C171.204 193.362 171.921 195.06 171.959 197.134V214.729H166.188V199.34C166.15 198.171 165.868 197.191 165.34 196.399C164.849 195.607 163.963 195.173 162.681 195.097C161.323 195.097 160.116 195.512 159.06 196.342C158.041 197.172 157.249 198.247 156.684 199.567C156.118 200.887 155.816 202.301 155.779 203.81V214.729H149.951V199.34C149.914 198.171 149.631 197.191 149.103 196.399C148.575 195.607 147.651 195.173 146.331 195.097C144.973 195.097 143.785 195.512 142.767 196.342C141.748 197.172 140.956 198.266 140.39 199.623C139.862 200.943 139.598 202.339 139.598 203.81V214.729H133.771V191.024H138.976ZM200.889 214.729V196.172H196.872V191.024H200.889V181.406C200.889 178.012 201.7 175.391 203.321 173.543C204.943 171.695 207.3 170.771 210.393 170.771C211.223 170.771 212.147 170.903 213.165 171.167C214.184 171.393 215.089 171.77 215.881 172.298L213.448 176.541C213.109 176.164 212.713 175.9 212.26 175.749C211.845 175.598 211.411 175.523 210.959 175.523C209.639 175.523 208.602 175.975 207.847 176.881C207.093 177.786 206.716 179.332 206.716 181.52V191.024H214.184V196.172H206.716V214.729H200.889ZM217.645 202.622C217.645 200.246 218.211 198.115 219.342 196.229C220.474 194.305 222.039 192.797 224.038 191.703C226.037 190.609 228.319 190.062 230.883 190.062C233.486 190.062 235.768 190.609 237.729 191.703C239.69 192.797 241.199 194.305 242.255 196.229C243.349 198.115 243.895 200.246 243.895 202.622C243.895 204.998 243.349 207.148 242.255 209.071C241.199 210.995 239.69 212.522 237.729 213.654C235.768 214.747 233.467 215.294 230.827 215.294C228.3 215.294 226.037 214.785 224.038 213.767C222.077 212.748 220.512 211.296 219.342 209.411C218.211 207.487 217.645 205.224 217.645 202.622ZM223.529 202.678C223.529 204.149 223.849 205.488 224.491 206.695C225.132 207.864 225.999 208.807 227.093 209.524C228.187 210.203 229.413 210.542 230.77 210.542C232.166 210.542 233.41 210.203 234.504 209.524C235.598 208.807 236.447 207.864 237.05 206.695C237.691 205.488 238.012 204.149 238.012 202.678C238.012 201.207 237.691 199.887 237.05 198.718C236.447 197.549 235.598 196.606 234.504 195.889C233.41 195.173 232.166 194.814 230.77 194.814C229.375 194.814 228.13 195.173 227.036 195.889C225.943 196.606 225.075 197.568 224.434 198.775C223.831 199.944 223.529 201.245 223.529 202.678ZM255.991 191.024L256.557 197.813L256.274 196.908C256.915 195.475 257.82 194.249 258.99 193.23C260.159 192.212 261.366 191.439 262.61 190.911C263.893 190.345 264.968 190.062 265.835 190.062L265.552 195.833C263.742 195.72 262.158 196.059 260.8 196.851C259.48 197.643 258.443 198.699 257.688 200.019C256.934 201.339 256.557 202.754 256.557 204.262V214.729H250.786V191.024H255.991ZM292.717 180.614H298.545V191.081H304.881V195.663H298.545V214.729H292.717V195.663H288.531V191.081H292.717V180.614ZM311.172 214.729V170.771H316.83V196.399L316.773 195.437C317.565 193.89 318.772 192.608 320.394 191.59C322.016 190.571 323.958 190.062 326.221 190.062C328.446 190.062 330.276 190.722 331.709 192.042C333.18 193.362 333.934 195.079 333.972 197.191V214.729H328.145V199.227C328.107 198.02 327.749 197.04 327.07 196.285C326.391 195.493 325.335 195.079 323.902 195.041C322.619 195.041 321.45 195.437 320.394 196.229C319.338 196.983 318.508 198.039 317.905 199.397C317.301 200.717 317 202.226 317 203.923V214.729H311.172ZM354.03 215.294C351.277 215.294 348.919 214.766 346.958 213.71C344.997 212.616 343.488 211.127 342.432 209.241C341.376 207.317 340.848 205.13 340.848 202.678C340.848 200.34 341.433 198.228 342.602 196.342C343.809 194.418 345.412 192.891 347.411 191.76C349.447 190.628 351.691 190.062 354.143 190.062C357.311 190.062 359.932 190.986 362.007 192.834C364.119 194.682 365.533 197.266 366.25 200.585L346.958 207.261L345.6 203.866L361.045 198.322L359.857 199.058C359.404 197.888 358.688 196.87 357.707 196.003C356.727 195.097 355.388 194.645 353.69 194.645C352.333 194.645 351.107 194.984 350.013 195.663C348.957 196.304 348.108 197.209 347.467 198.379C346.864 199.51 346.562 200.849 346.562 202.395C346.562 203.979 346.883 205.375 347.524 206.582C348.203 207.751 349.108 208.675 350.239 209.354C351.409 210.033 352.71 210.372 354.143 210.372C355.161 210.372 356.123 210.184 357.028 209.807C357.971 209.429 358.858 208.958 359.687 208.392L362.346 212.692C361.102 213.484 359.744 214.125 358.273 214.615C356.84 215.068 355.425 215.294 354.03 215.294ZM80.7637 230.656H86.8171V271.729H80.7637V230.656ZM99.0114 271.729V253.172H94.9947V248.024H99.0114V238.406C99.0114 235.012 99.8223 232.391 101.444 230.543C103.066 228.695 105.423 227.771 108.516 227.771C109.346 227.771 110.27 227.903 111.288 228.167C112.306 228.393 113.211 228.77 114.004 229.298L111.571 233.541C111.231 233.164 110.835 232.9 110.383 232.749C109.968 232.598 109.534 232.523 109.082 232.523C107.762 232.523 106.724 232.975 105.97 233.881C105.216 234.786 104.839 236.332 104.839 238.52V248.024H112.306V253.172H104.839V271.729H99.0114ZM139.121 283.1L154.792 248.024H160.11L144.835 283.1H139.121ZM145.118 271.898L133.634 248.024H140.196L149.588 268.956L145.118 271.898ZM162.673 259.622C162.673 257.246 163.239 255.115 164.371 253.229C165.502 251.305 167.067 249.797 169.066 248.703C171.065 247.609 173.347 247.062 175.912 247.062C178.514 247.062 180.796 247.609 182.757 248.703C184.718 249.797 186.227 251.305 187.283 253.229C188.377 255.115 188.924 257.246 188.924 259.622C188.924 261.998 188.377 264.148 187.283 266.071C186.227 267.995 184.718 269.522 182.757 270.654C180.796 271.747 178.495 272.294 175.855 272.294C173.328 272.294 171.065 271.785 169.066 270.767C167.105 269.748 165.54 268.296 164.371 266.411C163.239 264.487 162.673 262.224 162.673 259.622ZM168.557 259.678C168.557 261.149 168.878 262.488 169.519 263.695C170.16 264.864 171.028 265.807 172.121 266.524C173.215 267.203 174.441 267.542 175.799 267.542C177.194 267.542 178.439 267.203 179.532 266.524C180.626 265.807 181.475 264.864 182.078 263.695C182.719 262.488 183.04 261.149 183.04 259.678C183.04 258.207 182.719 256.887 182.078 255.718C181.475 254.549 180.626 253.606 179.532 252.889C178.439 252.173 177.194 251.814 175.799 251.814C174.403 251.814 173.158 252.173 172.065 252.889C170.971 253.606 170.103 254.568 169.462 255.775C168.859 256.944 168.557 258.245 168.557 259.678ZM203.396 272.69C201.208 272.69 199.417 272.03 198.021 270.71C196.626 269.39 195.89 267.693 195.815 265.619V248.024H201.642V263.525C201.717 264.732 202.057 265.732 202.66 266.524C203.301 267.278 204.32 267.674 205.715 267.712C206.998 267.712 208.129 267.335 209.11 266.58C210.128 265.788 210.92 264.732 211.486 263.412C212.089 262.054 212.391 260.508 212.391 258.773V248.024H218.218V271.729H212.957L212.504 266.241L212.73 267.146C212.24 268.202 211.542 269.164 210.637 270.031C209.732 270.861 208.657 271.502 207.412 271.955C206.168 272.445 204.829 272.69 203.396 272.69ZM250.356 248.024L250.865 253.116L250.639 252.72C251.544 250.947 252.789 249.57 254.373 248.59C255.957 247.571 257.786 247.062 259.86 247.062C261.143 247.062 262.293 247.27 263.311 247.685C264.367 248.099 265.235 248.684 265.914 249.438C266.593 250.193 267.026 251.136 267.215 252.267L266.932 252.437C267.875 250.777 269.12 249.476 270.666 248.533C272.25 247.553 273.928 247.062 275.701 247.062C278.002 247.062 279.831 247.722 281.189 249.042C282.584 250.362 283.301 252.06 283.339 254.134V271.729H277.568V256.34C277.53 255.171 277.247 254.191 276.719 253.399C276.229 252.607 275.343 252.173 274.06 252.097C272.703 252.097 271.496 252.512 270.44 253.342C269.421 254.172 268.629 255.247 268.064 256.567C267.498 257.887 267.196 259.301 267.158 260.81V271.729H261.331V256.34C261.294 255.171 261.011 254.191 260.483 253.399C259.955 252.607 259.031 252.173 257.711 252.097C256.353 252.097 255.165 252.512 254.146 253.342C253.128 254.172 252.336 255.266 251.77 256.623C251.242 257.943 250.978 259.339 250.978 260.81V271.729H245.151V248.024H250.356ZM292.278 248.024H298.105V271.729H292.278V248.024ZM291.938 239.538C291.938 238.633 292.297 237.878 293.013 237.275C293.73 236.672 294.503 236.37 295.333 236.37C296.2 236.37 296.973 236.672 297.652 237.275C298.331 237.878 298.671 238.633 298.671 239.538C298.671 240.443 298.331 241.197 297.652 241.801C296.973 242.367 296.2 242.65 295.333 242.65C294.503 242.65 293.73 242.367 293.013 241.801C292.297 241.197 291.938 240.443 291.938 239.538ZM313.876 272.238C312.141 272.238 310.462 271.936 308.841 271.332C307.219 270.691 305.88 269.767 304.824 268.56L307.313 265.279C308.331 266.222 309.35 266.939 310.368 267.429C311.424 267.881 312.424 268.108 313.366 268.108C314.121 268.108 314.8 268.032 315.403 267.881C316.007 267.693 316.497 267.391 316.874 266.976C317.251 266.561 317.44 266.015 317.44 265.336C317.44 264.544 317.176 263.921 316.648 263.469C316.12 263.016 315.441 262.639 314.611 262.337C313.781 262.036 312.895 261.753 311.952 261.489C309.953 260.847 308.445 259.942 307.426 258.773C306.408 257.566 305.899 256.152 305.899 254.53C305.899 253.285 306.2 252.116 306.804 251.022C307.445 249.891 308.407 248.967 309.689 248.25C310.972 247.534 312.556 247.175 314.441 247.175C316.176 247.175 317.704 247.383 319.024 247.798C320.344 248.175 321.57 248.835 322.701 249.778L320.438 253.285C319.759 252.607 318.948 252.097 318.006 251.758C317.1 251.381 316.271 251.173 315.516 251.136C314.837 251.136 314.215 251.249 313.649 251.475C313.084 251.664 312.631 251.965 312.292 252.38C311.952 252.757 311.782 253.21 311.782 253.738C311.745 254.492 311.99 255.115 312.518 255.605C313.084 256.058 313.8 256.435 314.668 256.736C315.535 257 316.384 257.283 317.214 257.585C318.383 257.924 319.42 258.396 320.325 258.999C321.23 259.565 321.947 260.263 322.475 261.093C323.003 261.922 323.267 262.978 323.267 264.261C323.267 265.656 322.927 266.976 322.249 268.221C321.57 269.428 320.533 270.408 319.137 271.163C317.742 271.879 315.988 272.238 313.876 272.238ZM337.356 272.238C335.621 272.238 333.943 271.936 332.321 271.332C330.699 270.691 329.36 269.767 328.304 268.56L330.793 265.279C331.812 266.222 332.83 266.939 333.848 267.429C334.905 267.881 335.904 268.108 336.847 268.108C337.601 268.108 338.28 268.032 338.884 267.881C339.487 267.693 339.977 267.391 340.354 266.976C340.732 266.561 340.92 266.015 340.92 265.336C340.92 264.544 340.656 263.921 340.128 263.469C339.6 263.016 338.921 262.639 338.091 262.337C337.262 262.036 336.375 261.753 335.433 261.489C333.434 260.847 331.925 259.942 330.907 258.773C329.888 257.566 329.379 256.152 329.379 254.53C329.379 253.285 329.681 252.116 330.284 251.022C330.925 249.891 331.887 248.967 333.17 248.25C334.452 247.534 336.036 247.175 337.922 247.175C339.657 247.175 341.184 247.383 342.504 247.798C343.824 248.175 345.05 248.835 346.182 249.778L343.919 253.285C343.24 252.607 342.429 252.097 341.486 251.758C340.581 251.381 339.751 251.173 338.997 251.136C338.318 251.136 337.695 251.249 337.13 251.475C336.564 251.664 336.111 251.965 335.772 252.38C335.433 252.757 335.263 253.21 335.263 253.738C335.225 254.492 335.47 255.115 335.998 255.605C336.564 256.058 337.281 256.435 338.148 256.736C339.016 257 339.864 257.283 340.694 257.585C341.863 257.924 342.9 258.396 343.805 258.999C344.711 259.565 345.427 260.263 345.955 261.093C346.483 261.922 346.747 262.978 346.747 264.261C346.747 265.656 346.408 266.976 345.729 268.221C345.05 269.428 344.013 270.408 342.617 271.163C341.222 271.879 339.468 272.238 337.356 272.238ZM359.083 266.75C358.253 268.749 357.423 270.729 356.593 272.69C355.801 274.652 354.99 276.632 354.161 278.631H349.465C350.219 276.632 350.955 274.652 351.671 272.69C352.388 270.729 353.124 268.749 353.878 266.75H359.083ZM385.417 283.1L401.088 248.024H406.406L391.131 283.1H385.417ZM391.414 271.898L379.929 248.024H386.492L395.883 268.956L391.414 271.898ZM408.969 259.622C408.969 257.246 409.535 255.115 410.666 253.229C411.798 251.305 413.363 249.797 415.362 248.703C417.361 247.609 419.642 247.062 422.207 247.062C424.81 247.062 427.091 247.609 429.053 248.703C431.014 249.797 432.522 251.305 433.579 253.229C434.672 255.115 435.219 257.246 435.219 259.622C435.219 261.998 434.672 264.148 433.579 266.071C432.522 267.995 431.014 269.522 429.053 270.654C427.091 271.747 424.791 272.294 422.151 272.294C419.624 272.294 417.361 271.785 415.362 270.767C413.4 269.748 411.835 268.296 410.666 266.411C409.535 264.487 408.969 262.224 408.969 259.622ZM414.853 259.678C414.853 261.149 415.173 262.488 415.814 263.695C416.455 264.864 417.323 265.807 418.417 266.524C419.51 267.203 420.736 267.542 422.094 267.542C423.49 267.542 424.734 267.203 425.828 266.524C426.922 265.807 427.77 264.864 428.374 263.695C429.015 262.488 429.335 261.149 429.335 259.678C429.335 258.207 429.015 256.887 428.374 255.718C427.77 254.549 426.922 253.606 425.828 252.889C424.734 252.173 423.49 251.814 422.094 251.814C420.699 251.814 419.454 252.173 418.36 252.889C417.266 253.606 416.399 254.568 415.758 255.775C415.154 256.944 414.853 258.245 414.853 259.678ZM449.691 272.69C447.504 272.69 445.712 272.03 444.317 270.71C442.921 269.39 442.186 267.693 442.11 265.619V248.024H447.937V263.525C448.013 264.732 448.352 265.732 448.956 266.524C449.597 267.278 450.615 267.674 452.011 267.712C453.293 267.712 454.424 267.335 455.405 266.58C456.423 265.788 457.215 264.732 457.781 263.412C458.385 262.054 458.686 260.508 458.686 258.773V248.024H464.513V271.729H459.252L458.799 266.241L459.026 267.146C458.535 268.202 457.838 269.164 456.933 270.031C456.027 270.861 454.952 271.502 453.708 271.955C452.463 272.445 451.124 272.69 449.691 272.69ZM84.6673 305.024L85.1765 310.116L84.9502 309.72C85.8554 307.947 87.1 306.57 88.6841 305.59C90.2681 304.571 92.0973 304.062 94.1717 304.062C95.4541 304.062 96.6044 304.27 97.6227 304.685C98.6788 305.099 99.5462 305.684 100.225 306.438C100.904 307.193 101.338 308.136 101.526 309.267L101.243 309.437C102.186 307.777 103.431 306.476 104.977 305.533C106.561 304.553 108.24 304.062 110.012 304.062C112.313 304.062 114.142 304.722 115.5 306.042C116.896 307.362 117.612 309.06 117.65 311.134V328.729H111.879V313.34C111.842 312.171 111.559 311.191 111.031 310.399C110.54 309.607 109.654 309.173 108.372 309.097C107.014 309.097 105.807 309.512 104.751 310.342C103.733 311.172 102.941 312.247 102.375 313.567C101.809 314.887 101.507 316.301 101.47 317.81V328.729H95.6426V313.34C95.6049 312.171 95.3221 311.191 94.794 310.399C94.266 309.607 93.342 309.173 92.0219 309.097C90.6641 309.097 89.4761 309.512 88.4578 310.342C87.4394 311.172 86.6474 312.266 86.0817 313.623C85.5536 314.943 85.2896 316.339 85.2896 317.81V328.729H79.4625V305.024H84.6673ZM136.489 329.294C134.264 329.294 132.246 328.842 130.436 327.936C128.626 326.994 127.192 325.598 126.136 323.75C125.08 321.902 124.552 319.62 124.552 316.905C124.552 314.227 125.099 311.926 126.193 310.003C127.324 308.079 128.795 306.608 130.606 305.59C132.454 304.534 134.453 304.006 136.603 304.006C138.866 304.006 140.714 304.496 142.147 305.477C143.618 306.42 144.768 307.532 145.598 308.814L145.202 309.72L145.768 305.024H151.142V328.729H145.315V322.788L145.937 324.203C145.786 324.504 145.466 324.938 144.976 325.504C144.485 326.032 143.825 326.598 142.995 327.201C142.203 327.804 141.261 328.314 140.167 328.729C139.111 329.106 137.885 329.294 136.489 329.294ZM138.074 324.542C139.318 324.542 140.431 324.316 141.411 323.863C142.392 323.411 143.222 322.769 143.901 321.94C144.58 321.11 145.051 320.129 145.315 318.998V314.076C145.013 313.02 144.504 312.115 143.787 311.36C143.071 310.568 142.203 309.946 141.185 309.493C140.204 309.041 139.111 308.814 137.904 308.814C136.546 308.814 135.301 309.154 134.17 309.833C133.038 310.474 132.133 311.379 131.454 312.548C130.775 313.718 130.436 315.075 130.436 316.622C130.436 318.093 130.775 319.432 131.454 320.638C132.171 321.845 133.114 322.807 134.283 323.524C135.452 324.203 136.716 324.542 138.074 324.542ZM162.049 340.1L177.72 305.024H183.038L167.763 340.1H162.049ZM168.046 328.898L156.562 305.024H163.124L172.516 325.956L168.046 328.898ZM206.478 328.729V284.771H212.135V310.399L212.078 309.437C212.87 307.89 214.077 306.608 215.699 305.59C217.321 304.571 219.263 304.062 221.526 304.062C223.751 304.062 225.581 304.722 227.014 306.042C228.485 307.362 229.239 309.079 229.277 311.191V328.729H223.45V313.227C223.412 312.02 223.054 311.04 222.375 310.285C221.696 309.493 220.64 309.079 219.207 309.041C217.924 309.041 216.755 309.437 215.699 310.229C214.643 310.983 213.813 312.039 213.21 313.397C212.606 314.717 212.305 316.226 212.305 317.923V328.729H206.478ZM238.19 305.024H244.017V328.729H238.19V305.024ZM237.85 296.538C237.85 295.633 238.209 294.878 238.925 294.275C239.642 293.672 240.415 293.37 241.245 293.37C242.112 293.37 242.886 293.672 243.564 294.275C244.243 294.878 244.583 295.633 244.583 296.538C244.583 297.443 244.243 298.197 243.564 298.801C242.886 299.367 242.112 299.65 241.245 299.65C240.415 299.65 239.642 299.367 238.925 298.801C238.209 298.197 237.85 297.443 237.85 296.538ZM255.149 294.614H260.976V305.081H267.312V309.663H260.976V328.729H255.149V309.663H250.962V305.081H255.149V294.614ZM301.515 329.294C299.29 329.294 297.272 328.842 295.462 327.936C293.651 326.994 292.218 325.598 291.162 323.75C290.106 321.902 289.578 319.62 289.578 316.905C289.578 314.227 290.125 311.926 291.219 310.003C292.35 308.079 293.821 306.608 295.631 305.59C297.48 304.534 299.478 304.006 301.628 304.006C303.891 304.006 305.739 304.496 307.173 305.477C308.643 306.42 309.794 307.532 310.624 308.814L310.228 309.72L310.793 305.024H316.168V328.729H310.341V322.788L310.963 324.203C310.812 324.504 310.492 324.938 310.001 325.504C309.511 326.032 308.851 326.598 308.021 327.201C307.229 327.804 306.286 328.314 305.192 328.729C304.136 329.106 302.911 329.294 301.515 329.294ZM303.099 324.542C304.344 324.542 305.456 324.316 306.437 323.863C307.418 323.411 308.247 322.769 308.926 321.94C309.605 321.11 310.077 320.129 310.341 318.998V314.076C310.039 313.02 309.53 312.115 308.813 311.36C308.097 310.568 307.229 309.946 306.211 309.493C305.23 309.041 304.136 308.814 302.929 308.814C301.572 308.814 300.327 309.154 299.196 309.833C298.064 310.474 297.159 311.379 296.48 312.548C295.801 313.718 295.462 315.075 295.462 316.622C295.462 318.093 295.801 319.432 296.48 320.638C297.197 321.845 298.14 322.807 299.309 323.524C300.478 324.203 301.741 324.542 303.099 324.542Z" fill="white"/>
<path d="M392.031 214.729V172.298H392.087L413.925 203.244L411.322 202.678L433.047 172.298H433.16V214.729H427.163V185.932L427.559 189.044L412.397 210.485H412.284L396.84 189.044L397.858 186.215V214.729H392.031ZM441.344 202.622C441.344 200.246 441.91 198.115 443.041 196.229C444.173 194.305 445.738 192.797 447.737 191.703C449.736 190.609 452.018 190.062 454.583 190.062C457.185 190.062 459.467 190.609 461.428 191.703C463.389 192.797 464.898 194.305 465.954 196.229C467.048 198.115 467.595 200.246 467.595 202.622C467.595 204.998 467.048 207.148 465.954 209.071C464.898 210.995 463.389 212.522 461.428 213.654C459.467 214.747 457.166 215.294 454.526 215.294C451.999 215.294 449.736 214.785 447.737 213.767C445.776 212.748 444.211 211.296 443.041 209.411C441.91 207.487 441.344 205.224 441.344 202.622ZM447.228 202.678C447.228 204.149 447.548 205.488 448.19 206.695C448.831 207.864 449.698 208.807 450.792 209.524C451.886 210.203 453.112 210.542 454.469 210.542C455.865 210.542 457.109 210.203 458.203 209.524C459.297 208.807 460.146 207.864 460.749 206.695C461.39 205.488 461.711 204.149 461.711 202.678C461.711 201.207 461.39 199.887 460.749 198.718C460.146 197.549 459.297 196.606 458.203 195.889C457.109 195.173 455.865 194.814 454.469 194.814C453.074 194.814 451.829 195.173 450.735 195.889C449.642 196.606 448.774 197.568 448.133 198.775C447.53 199.944 447.228 201.245 447.228 202.678ZM472.449 202.622C472.449 200.246 473.015 198.115 474.146 196.229C475.277 194.305 476.843 192.797 478.842 191.703C480.841 190.609 483.122 190.062 485.687 190.062C488.289 190.062 490.571 190.609 492.533 191.703C494.494 192.797 496.002 194.305 497.058 196.229C498.152 198.115 498.699 200.246 498.699 202.622C498.699 204.998 498.152 207.148 497.058 209.071C496.002 210.995 494.494 212.522 492.533 213.654C490.571 214.747 488.271 215.294 485.631 215.294C483.104 215.294 480.841 214.785 478.842 213.767C476.88 212.748 475.315 211.296 474.146 209.411C473.015 207.487 472.449 205.224 472.449 202.622ZM478.332 202.678C478.332 204.149 478.653 205.488 479.294 206.695C479.935 207.864 480.803 208.807 481.897 209.524C482.99 210.203 484.216 210.542 485.574 210.542C486.969 210.542 488.214 210.203 489.308 209.524C490.402 208.807 491.25 207.864 491.854 206.695C492.495 205.488 492.815 204.149 492.815 202.678C492.815 201.207 492.495 199.887 491.854 198.718C491.25 197.549 490.402 196.606 489.308 195.889C488.214 195.173 486.969 194.814 485.574 194.814C484.178 194.814 482.934 195.173 481.84 195.889C480.746 196.606 479.879 197.568 479.238 198.775C478.634 199.944 478.332 201.245 478.332 202.678ZM510.795 191.024L511.304 196.455L511.078 195.72C511.87 194.022 513.096 192.665 514.755 191.646C516.415 190.59 518.376 190.062 520.639 190.062C522.864 190.062 524.693 190.722 526.126 192.042C527.597 193.362 528.352 195.079 528.389 197.191V214.729H522.562V199.227C522.525 198.02 522.166 197.04 521.487 196.285C520.808 195.493 519.752 195.079 518.319 195.041C517.037 195.041 515.868 195.437 514.812 196.229C513.756 196.983 512.926 198.02 512.322 199.34C511.719 200.66 511.417 202.188 511.417 203.923V214.729H505.59V191.024H510.795ZM542.451 209.75C541.621 211.749 540.791 213.729 539.961 215.69C539.169 217.652 538.358 219.632 537.529 221.631H532.833C533.587 219.632 534.323 217.652 535.039 215.69C535.756 213.729 536.492 211.749 537.246 209.75H542.451ZM350.008 329.238C348.273 329.238 346.595 328.936 344.973 328.332C343.351 327.691 342.012 326.767 340.956 325.56L343.445 322.279C344.464 323.222 345.482 323.939 346.5 324.429C347.556 324.881 348.556 325.108 349.499 325.108C350.253 325.108 350.932 325.032 351.535 324.881C352.139 324.693 352.629 324.391 353.006 323.976C353.383 323.561 353.572 323.015 353.572 322.336C353.572 321.544 353.308 320.921 352.78 320.469C352.252 320.016 351.573 319.639 350.743 319.337C349.914 319.036 349.027 318.753 348.084 318.489C346.085 317.847 344.577 316.942 343.558 315.773C342.54 314.566 342.031 313.152 342.031 311.53C342.031 310.285 342.333 309.116 342.936 308.022C343.577 306.891 344.539 305.967 345.821 305.25C347.104 304.534 348.688 304.175 350.574 304.175C352.308 304.175 353.836 304.383 355.156 304.798C356.476 305.175 357.702 305.835 358.833 306.778L356.57 310.285C355.891 309.607 355.081 309.097 354.138 308.758C353.233 308.381 352.403 308.173 351.648 308.136C350.97 308.136 350.347 308.249 349.782 308.475C349.216 308.664 348.763 308.965 348.424 309.38C348.084 309.757 347.915 310.21 347.915 310.738C347.877 311.492 348.122 312.115 348.65 312.605C349.216 313.058 349.932 313.435 350.8 313.736C351.667 314 352.516 314.283 353.346 314.585C354.515 314.924 355.552 315.396 356.457 315.999C357.362 316.565 358.079 317.263 358.607 318.093C359.135 318.922 359.399 319.978 359.399 321.261C359.399 322.656 359.06 323.976 358.381 325.221C357.702 326.428 356.665 327.408 355.269 328.163C353.874 328.879 352.12 329.238 350.008 329.238ZM368.849 294.614H374.676V305.081H381.013V309.663H374.676V328.729H368.849V309.663H364.663V305.081H368.849V294.614ZM397.205 329.294C394.979 329.294 392.962 328.842 391.151 327.936C389.341 326.994 387.908 325.598 386.852 323.75C385.796 321.902 385.268 319.62 385.268 316.905C385.268 314.227 385.814 311.926 386.908 310.003C388.04 308.079 389.511 306.608 391.321 305.59C393.169 304.534 395.168 304.006 397.318 304.006C399.581 304.006 401.429 304.496 402.862 305.477C404.333 306.42 405.483 307.532 406.313 308.814L405.917 309.72L406.483 305.024H411.857V328.729H406.03V322.788L406.652 324.203C406.502 324.504 406.181 324.938 405.691 325.504C405.2 326.032 404.54 326.598 403.711 327.201C402.919 327.804 401.976 328.314 400.882 328.729C399.826 329.106 398.6 329.294 397.205 329.294ZM398.789 324.542C400.033 324.542 401.146 324.316 402.127 323.863C403.107 323.411 403.937 322.769 404.616 321.94C405.295 321.11 405.766 320.129 406.03 318.998V314.076C405.728 313.02 405.219 312.115 404.503 311.36C403.786 310.568 402.919 309.946 401.9 309.493C400.92 309.041 399.826 308.814 398.619 308.814C397.261 308.814 396.017 309.154 394.885 309.833C393.754 310.474 392.848 311.379 392.17 312.548C391.491 313.718 391.151 315.075 391.151 316.622C391.151 318.093 391.491 319.432 392.17 320.638C392.886 321.845 393.829 322.807 394.998 323.524C396.167 324.203 397.431 324.542 398.789 324.542ZM425.989 305.024L426.555 311.813L426.272 310.908C426.913 309.475 427.818 308.249 428.988 307.23C430.157 306.212 431.364 305.439 432.608 304.911C433.891 304.345 434.966 304.062 435.833 304.062L435.55 309.833C433.74 309.72 432.156 310.059 430.798 310.851C429.478 311.643 428.441 312.699 427.686 314.019C426.932 315.339 426.555 316.754 426.555 318.262V328.729H420.784V305.024H425.989Z" fill="#FF4D5A"/>
<path d="M88.0446 418.457C87.0061 418.401 86.1781 418.12 85.5606 417.615C84.9712 417.11 84.4239 416.59 83.9187 416.057C83.6099 415.692 83.2872 415.355 82.9504 415.047C82.6135 414.738 82.2066 414.57 81.7294 414.541C81.3365 414.513 80.9716 414.64 80.6348 414.92C80.298 415.201 80.0173 415.608 79.7927 416.141C79.5963 416.647 79.4559 417.264 79.3717 417.994L76.9298 417.783C77.014 416.548 77.2947 415.454 77.7719 414.499C78.249 413.545 78.8665 412.801 79.6243 412.268C80.4102 411.707 81.3084 411.468 82.3188 411.552C83.1609 411.58 83.8485 411.833 84.3818 412.31C84.9432 412.787 85.4484 413.306 85.8975 413.868C86.2623 414.289 86.6272 414.682 86.9921 415.047C87.385 415.383 87.8061 415.566 88.2551 415.594C88.6762 415.622 89.027 415.496 89.3077 415.215C89.6164 414.906 89.855 414.485 90.0234 413.952C90.2199 413.391 90.3462 412.745 90.4023 412.015L92.8863 412.184C92.8582 413.503 92.6197 414.64 92.1706 415.594C91.7215 416.548 91.1321 417.278 90.4023 417.783C89.6726 418.26 88.8867 418.485 88.0446 418.457ZM111.565 406.332H116.28L121.669 429.488L120.995 429.235L128.91 413.699L130.173 419.215L119.774 437.992L111.565 406.332ZM126.216 406.332H130.258L136.404 429.193L135.562 429.024L146.214 406.332H150.551L134.72 437.95L126.216 406.332ZM147.107 434.624C147.107 433.922 147.373 433.333 147.907 432.856C148.468 432.378 149.043 432.14 149.633 432.14C150.11 432.14 150.545 432.336 150.938 432.729C151.331 433.122 151.527 433.599 151.527 434.161C151.527 434.638 151.401 435.059 151.149 435.424C150.896 435.789 150.573 436.083 150.18 436.308C149.815 436.504 149.436 436.603 149.043 436.603C148.538 436.603 148.089 436.42 147.696 436.055C147.303 435.69 147.107 435.213 147.107 434.624ZM356.563 412.142C355.581 411.524 354.472 410.977 353.237 410.5C352.002 410.023 350.781 409.77 349.574 409.742C348.592 409.714 347.75 409.826 347.048 410.079C346.374 410.303 345.799 410.612 345.322 411.005C344.873 411.398 344.536 411.847 344.311 412.352C344.087 412.857 343.96 413.349 343.932 413.826C343.876 414.696 344.115 415.468 344.648 416.141C345.21 416.815 345.953 417.418 346.88 417.952C347.806 418.457 348.774 418.948 349.785 419.425C350.963 419.959 352.086 420.59 353.153 421.32C354.247 422.022 355.117 422.934 355.763 424.056C356.409 425.179 356.647 426.639 356.479 428.435C356.394 429.473 356.1 430.512 355.595 431.55C355.117 432.589 354.43 433.515 353.532 434.329C352.661 435.143 351.567 435.789 350.248 436.266C348.957 436.743 347.441 436.954 345.701 436.897C344.382 436.841 343.118 436.645 341.912 436.308C340.733 435.943 339.624 435.494 338.586 434.961C337.575 434.399 336.663 433.768 335.849 433.066L338.038 429.993C338.656 430.554 339.385 431.087 340.227 431.593C341.07 432.07 341.968 432.463 342.922 432.771C343.904 433.052 344.859 433.221 345.785 433.277C346.992 433.277 348.058 433.08 348.985 432.687C349.939 432.266 350.697 431.677 351.258 430.919C351.848 430.133 352.184 429.235 352.269 428.224C352.325 427.326 352.1 426.54 351.595 425.867C351.118 425.165 350.472 424.562 349.658 424.056C348.872 423.523 348.002 423.046 347.048 422.625C346.178 422.232 345.28 421.783 344.353 421.278C343.455 420.772 342.627 420.197 341.869 419.552C341.112 418.906 340.522 418.12 340.101 417.194C339.708 416.268 339.582 415.187 339.722 413.952C339.863 412.324 340.368 410.921 341.238 409.742C342.108 408.563 343.245 407.665 344.648 407.047C346.08 406.43 347.679 406.121 349.448 406.121C350.767 406.177 351.974 406.36 353.068 406.668C354.163 406.949 355.16 407.3 356.058 407.721C356.956 408.142 357.77 408.605 358.5 409.11L356.563 412.142ZM365.633 411.51H369.548L368.622 419.257H373.422L373.043 422.33H368.243L366.517 436.603H362.601L364.328 422.33H361.128L361.465 419.257H364.707L365.633 411.51ZM384.847 437.024C383.752 437.024 382.658 436.841 381.563 436.476C380.468 436.111 379.472 435.578 378.574 434.876C377.676 434.147 376.96 433.249 376.427 432.182C375.893 431.115 375.627 429.88 375.627 428.477C375.627 427.382 375.809 426.26 376.174 425.109C376.567 423.93 377.156 422.849 377.942 421.867C378.728 420.885 379.753 420.085 381.016 419.467C382.307 418.85 383.865 418.541 385.689 418.541C387.289 418.541 388.776 418.878 390.152 419.552C391.555 420.225 392.692 421.208 393.562 422.499C394.46 423.762 394.909 425.291 394.909 427.088C394.909 427.817 394.797 428.645 394.572 429.572C394.376 430.47 394.039 431.354 393.562 432.224C393.113 433.094 392.495 433.894 391.709 434.624C390.952 435.354 389.997 435.943 388.847 436.392C387.724 436.813 386.391 437.024 384.847 437.024ZM384.973 433.782C386.405 433.782 387.555 433.445 388.425 432.771C389.296 432.07 389.927 431.214 390.32 430.203C390.713 429.193 390.909 428.21 390.909 427.256C390.909 426.274 390.741 425.446 390.404 424.772C390.096 424.07 389.66 423.495 389.099 423.046C388.566 422.597 387.976 422.274 387.331 422.078C386.713 421.853 386.124 421.741 385.563 421.741C384.159 421.741 383.008 422.078 382.11 422.751C381.24 423.425 380.595 424.281 380.174 425.319C379.781 426.33 379.584 427.312 379.584 428.267C379.584 429.53 379.851 430.568 380.384 431.382C380.945 432.196 381.647 432.799 382.489 433.192C383.331 433.585 384.159 433.782 384.973 433.782ZM404.757 419.173L404.715 423.13L404.42 422.583C405.178 421.376 406.202 420.394 407.493 419.636C408.812 418.878 410.328 418.499 412.04 418.499C413.724 418.499 415.029 418.99 415.956 419.973C416.91 420.927 417.317 422.176 417.177 423.72L415.577 436.603H411.661L413.051 425.067C413.163 424.113 412.966 423.341 412.461 422.751C411.984 422.162 411.198 421.867 410.104 421.867C409.065 421.867 408.111 422.162 407.241 422.751C406.371 423.313 405.655 424.084 405.093 425.067C404.532 426.049 404.181 427.172 404.041 428.435L403.03 436.603H399.115L401.22 419.173H404.757ZM431.48 433.656C432.182 433.656 432.855 433.543 433.501 433.319C434.146 433.066 434.764 432.757 435.353 432.393L436.785 435.382C435.943 435.887 435.016 436.28 434.006 436.561C433.024 436.841 432.055 436.982 431.101 436.982C429.277 436.982 427.677 436.645 426.301 435.971C424.926 435.269 423.845 434.259 423.06 432.94C422.302 431.621 421.923 430.035 421.923 428.182C421.923 427.032 422.133 425.895 422.554 424.772C422.975 423.649 423.607 422.625 424.449 421.699C425.291 420.744 426.329 419.987 427.564 419.425C428.828 418.836 430.287 418.541 431.943 418.541C432.982 418.541 433.964 418.681 434.89 418.962C435.844 419.215 436.715 419.65 437.5 420.267C438.286 420.885 438.946 421.713 439.479 422.751C440.041 423.79 440.433 425.067 440.658 426.582L425.754 430.793L425.123 428.393L437.837 424.73L436.448 425.362C436.167 424.267 435.606 423.369 434.764 422.667C433.95 421.965 432.967 421.615 431.817 421.615C430.582 421.615 429.515 421.909 428.617 422.499C427.719 423.06 427.031 423.804 426.554 424.73C426.077 425.656 425.838 426.653 425.838 427.719C425.838 429.066 426.105 430.175 426.638 431.045C427.172 431.915 427.873 432.575 428.743 433.024C429.613 433.445 430.526 433.656 431.48 433.656Z" fill="white"/>
<path d="M190.97 435.045C190.493 435.298 189.847 435.592 189.033 435.929C188.219 436.266 187.279 436.547 186.213 436.771C185.174 436.996 184.051 437.108 182.844 437.108C181.076 437.108 179.322 436.827 177.582 436.266C175.87 435.704 174.312 434.848 172.908 433.698C171.505 432.547 170.382 431.087 169.54 429.319C168.698 427.523 168.277 425.404 168.277 422.962C168.277 421.362 168.46 419.762 168.825 418.162C169.218 416.562 169.807 415.033 170.593 413.573C171.407 412.114 172.431 410.822 173.666 409.7C174.929 408.577 176.445 407.693 178.213 407.047C179.982 406.374 182.016 406.037 184.318 406.037C186.367 406.037 188.191 406.346 189.791 406.963C191.391 407.581 192.724 408.282 193.791 409.068L191.686 412.731C190.9 412.086 189.903 411.482 188.697 410.921C187.49 410.359 186.142 410.037 184.655 409.952C182.634 409.896 180.866 410.205 179.35 410.879C177.834 411.552 176.571 412.493 175.561 413.699C174.55 414.878 173.793 416.24 173.287 417.783C172.782 419.327 172.53 420.955 172.53 422.667C172.53 424.211 172.782 425.628 173.287 426.919C173.793 428.21 174.508 429.319 175.435 430.245C176.361 431.172 177.469 431.901 178.761 432.435C180.052 432.94 181.469 433.192 183.013 433.192C184.051 433.192 184.978 433.08 185.792 432.856C186.634 432.631 187.377 432.378 188.023 432.098C188.668 431.789 189.23 431.522 189.707 431.298L190.97 435.045ZM200.706 404.016H204.663L200.664 436.603H196.748L200.706 404.016ZM216.573 433.656C217.275 433.656 217.948 433.543 218.594 433.319C219.239 433.066 219.857 432.757 220.446 432.393L221.878 435.382C221.036 435.887 220.11 436.28 219.099 436.561C218.117 436.841 217.148 436.982 216.194 436.982C214.37 436.982 212.77 436.645 211.395 435.971C210.019 435.269 208.939 434.259 208.153 432.94C207.395 431.621 207.016 430.035 207.016 428.182C207.016 427.032 207.226 425.895 207.647 424.772C208.069 423.649 208.7 422.625 209.542 421.699C210.384 420.744 211.423 419.987 212.658 419.425C213.921 418.836 215.38 418.541 217.036 418.541C218.075 418.541 219.057 418.681 219.983 418.962C220.938 419.215 221.808 419.65 222.594 420.267C223.379 420.885 224.039 421.713 224.572 422.751C225.134 423.79 225.527 425.067 225.751 426.582L210.847 430.793L210.216 428.393L222.93 424.73L221.541 425.362C221.26 424.267 220.699 423.369 219.857 422.667C219.043 421.965 218.061 421.615 216.91 421.615C215.675 421.615 214.608 421.909 213.71 422.499C212.812 423.06 212.124 423.804 211.647 424.73C211.17 425.656 210.931 426.653 210.931 427.719C210.931 429.066 211.198 430.175 211.731 431.045C212.265 431.915 212.966 432.575 213.836 433.024C214.707 433.445 215.619 433.656 216.573 433.656ZM235.076 419.173L234.95 423.172L234.823 422.541C235.665 421.278 236.704 420.295 237.939 419.594C239.202 418.864 240.619 418.499 242.191 418.499C243.623 418.499 244.759 418.808 245.601 419.425C246.443 420.043 246.935 420.969 247.075 422.204L246.949 422.33C247.791 421.179 248.829 420.253 250.064 419.552C251.327 418.85 252.632 418.499 253.98 418.499C255.692 418.499 256.983 418.99 257.853 419.973C258.723 420.927 259.088 422.176 258.948 423.72L257.39 436.603H253.474L254.864 425.109C254.948 424.211 254.822 423.467 254.485 422.878C254.148 422.288 253.502 421.965 252.548 421.909C251.482 421.909 250.513 422.218 249.643 422.835C248.773 423.425 248.057 424.211 247.496 425.193C246.935 426.147 246.57 427.186 246.401 428.309L245.391 436.603H241.433L242.865 425.109C242.921 424.211 242.767 423.467 242.402 422.878C242.065 422.288 241.405 421.965 240.423 421.909C239.384 421.909 238.43 422.218 237.56 422.835C236.69 423.425 235.974 424.211 235.413 425.193C234.851 426.176 234.501 427.228 234.36 428.351L233.35 436.603H229.434L231.539 419.173H235.076ZM273.311 433.656C274.013 433.656 274.687 433.543 275.332 433.319C275.978 433.066 276.595 432.757 277.185 432.393L278.616 435.382C277.774 435.887 276.848 436.28 275.837 436.561C274.855 436.841 273.887 436.982 272.932 436.982C271.108 436.982 269.508 436.645 268.133 435.971C266.758 435.269 265.677 434.259 264.891 432.94C264.133 431.621 263.754 430.035 263.754 428.182C263.754 427.032 263.965 425.895 264.386 424.772C264.807 423.649 265.438 422.625 266.28 421.699C267.122 420.744 268.161 419.987 269.396 419.425C270.659 418.836 272.119 418.541 273.775 418.541C274.813 418.541 275.795 418.681 276.722 418.962C277.676 419.215 278.546 419.65 279.332 420.267C280.118 420.885 280.777 421.713 281.311 422.751C281.872 423.79 282.265 425.067 282.49 426.582L267.586 430.793L266.954 428.393L279.669 424.73L278.279 425.362C277.999 424.267 277.437 423.369 276.595 422.667C275.781 421.965 274.799 421.615 273.648 421.615C272.413 421.615 271.347 421.909 270.448 422.499C269.55 423.06 268.863 423.804 268.386 424.73C267.908 425.656 267.67 426.653 267.67 427.719C267.67 429.066 267.936 430.175 268.47 431.045C269.003 431.915 269.705 432.575 270.575 433.024C271.445 433.445 272.357 433.656 273.311 433.656ZM291.814 419.173L291.772 423.13L291.478 422.583C292.235 421.376 293.26 420.394 294.551 419.636C295.87 418.878 297.386 418.499 299.098 418.499C300.782 418.499 302.087 418.99 303.013 419.973C303.968 420.927 304.375 422.176 304.234 423.72L302.634 436.603H298.719L300.108 425.067C300.221 424.113 300.024 423.341 299.519 422.751C299.042 422.162 298.256 421.867 297.161 421.867C296.123 421.867 295.168 422.162 294.298 422.751C293.428 423.313 292.713 424.084 292.151 425.067C291.59 426.049 291.239 427.172 291.099 428.435L290.088 436.603H286.173L288.278 419.173H291.814ZM314.075 411.51H317.99L317.064 419.257H321.864L321.485 422.33H316.685L314.959 436.603H311.044L312.77 422.33H309.57L309.907 419.257H313.149L314.075 411.51Z" fill="#FF4D5A"/>
<path d="M47.091 90.2102L61.2774 95.7271C58.3875 98.3542 56.0231 102.164 54.1842 107.155C52.3452 112.147 51.8854 116.941 52.8049 121.538L31.7224 122.918C30.8029 117.926 30.9342 113.329 32.1164 109.125C33.43 104.922 35.466 101.244 38.2245 98.0915C40.9829 94.8076 43.9384 92.1805 47.091 90.2102ZM19.7033 90.2102L33.8897 95.7271C30.9999 98.3542 28.6355 102.164 26.7965 107.155C24.9576 112.147 24.4978 116.941 25.4173 121.538L4.33473 122.918C3.41524 117.926 3.5466 113.329 4.7288 109.125C6.04235 104.922 8.07837 101.244 10.8368 98.0915C13.5953 94.8076 16.5508 92.1805 19.7033 90.2102Z" fill="white"/>
</g>
</g>
<defs>
<filter id="filter0_d_1187_732" x="-1.20378" y="90.2102" width="547.814" height="356.101" filterUnits="userSpaceOnUse" color-interpolation-filters="sRGB">
<feFlood flood-opacity="0" result="BackgroundImageFix"/>
<feColorMatrix in="SourceAlpha" type="matrix" values="0 0 0 0 0 0 0 0 0 0 0 0 0 0 0 0 0 0 127 0" result="hardAlpha"/>
<feOffset dy="4.15935"/>
<feGaussianBlur stdDeviation="2.07968"/>
<feComposite in2="hardAlpha" operator="out"/>
<feColorMatrix type="matrix" values="0 0 0 0 0 0 0 0 0 0 0 0 0 0 0 0 0 0 0.25 0"/>
<feBlend mode="normal" in2="BackgroundImageFix" result="effect1_dropShadow_1187_732"/>
<feBlend mode="normal" in="SourceGraphic" in2="effect1_dropShadow_1187_732" result="shape"/>
</filter>
<clipPath id="clip0_1187_732">
<rect width="940" height="624" fill="white"/>
</clipPath>
</defs>
</svg>
