<svg width="512" height="512" viewBox="0 0 512 512" fill="none" xmlns="http://www.w3.org/2000/svg">
<g clip-path="url(#clip0_1281_732)">
<path fill-rule="evenodd" clip-rule="evenodd" d="M37 0H49C63.6 3.1 73.8 12.8 83.5 23.1C89.6 29.5 95.9 35.7 102.3 41.8C103.5 43 105.6 43.6 107.4 43.8C109.368 43.9514 111.394 43.9022 113.417 43.8531C116.739 43.7725 120.055 43.692 123.1 44.5C145.194 50.2708 167.228 56.1927 189.267 62.1162L189.268 62.1164L189.27 62.117L189.271 62.1171L189.271 62.1172L189.271 62.1173L189.272 62.1174L189.272 62.1175C207.332 66.9714 225.396 71.8262 243.5 76.6C246.7 77.4 250.4 77.4 253.6 76.5C288.323 67.3511 322.993 58.0465 357.687 48.7358L357.687 48.7357L357.688 48.7355L357.688 48.7354L357.689 48.7353L357.692 48.7345L357.731 48.7239C371.182 45.114 384.637 41.5031 398.1 37.9C415.5 33.2 428.4 40.7 433.1 58C439.396 81.7848 445.792 105.47 452.188 129.155L452.192 129.169L452.195 129.183L452.2 129.2C452.6 130.8 453.5 133.1 454.8 133.7C468.6 140.4 472 155.4 467.4 168.2C465.7 173 465 177.8 466.5 183.2C474.929 214.033 483.201 244.917 491.468 275.779L491.469 275.782L491.47 275.784L491.47 275.787L491.47 275.788L491.471 275.788C494.678 287.764 497.885 299.736 501.1 311.7C503.616 321.116 506.286 330.48 508.964 339.867L508.964 339.868L508.964 339.868L508.964 339.868L508.964 339.868L508.964 339.87C510.012 343.542 511.06 347.217 512.1 350.9V361.9C508 373.6 499.7 379.8 487.8 382.8C470.069 387.266 452.426 391.999 434.783 396.732L434.778 396.733L434.772 396.735L434.766 396.736L434.76 396.738L434.754 396.74L434.748 396.741C425.936 399.105 417.123 401.469 408.3 403.8C405 404.7 403.5 406.2 402.6 409.6C400.101 419.111 397.519 428.608 394.936 438.106C390.594 454.075 386.25 470.048 382.3 486.1C379.3 498.5 373.5 507.7 361.1 511.9H350.1C349.987 511.815 349.881 511.722 349.777 511.63C349.514 511.397 349.258 511.172 348.9 511.1C317.71 502.773 286.529 494.429 255.349 486.086L255.275 486.066L255.2 486.046C178.963 465.646 102.732 445.247 26.4 425.1C13.3 421.6 3.6 415.7 0 402V394C0.173765 393.508 0.355918 393.024 0.536742 392.543C0.980291 391.365 1.41584 390.208 1.7 389C8.61626 363.171 15.5232 337.342 22.4293 311.516L22.4301 311.513L22.4308 311.51L22.4316 311.508C38.0916 252.946 53.7477 194.399 69.5 135.9C70.4 132.6 70 130.5 67.5 128C60.3963 121.037 53.381 113.986 46.3606 106.93L46.3593 106.928L46.3589 106.928L46.3584 106.928L46.358 106.927L46.3575 106.927C38.4561 98.9848 30.5481 91.0364 22.5 83.2C12.7 73.6 3.2 64 0 50V36C2.9 25.9 6.7 15.9 15.8 10C20.2218 7.07478 25.1527 5.02886 30.089 2.98072C32.4089 2.01814 34.73 1.05507 37 0ZM85.5 144.5C85.0118 145.721 84.6904 146.488 84.4661 147.024L84.466 147.024L84.4655 147.025L84.4654 147.026L84.465 147.027L84.465 147.027C84.2305 147.587 84.1022 147.893 84 148.2L83.9973 148.21C62.0982 229.907 40.1991 311.603 18.4 393.3C16.3 401.3 18.5 404.9 26.8 407.1L348.4 493.2C359.2 496.1 362.1 494.6 364.8 484.5C379.2 430.8 393.575 377.125 407.95 323.45C422.325 269.775 436.7 216.1 451.1 162.4C453.5 153.4 451.6 150.2 442.7 147.8C378.233 130.533 313.856 113.267 249.478 96C217.289 87.3667 185.1 78.7333 152.9 70.1C148.2 68.85 143.475 67.5999 138.749 66.3499C134.025 65.0999 129.3 63.85 124.6 62.6L122.8 64.7C123.364 65.0134 123.948 65.2876 124.527 65.5594L124.527 65.5594C125.795 66.1548 127.039 66.7388 128 67.7C169.1 108.7 210.1 149.7 251 190.8C253.2 193 255.4 195.6 256.3 198.5C262.6 216.5 268.7 234.6 274.4 252.8C275.5 256.3 276.9 258 280.3 258.9C309.195 266.499 338.09 274.297 366.984 282.096L366.99 282.097L367 282.1C367.422 282.217 367.867 282.318 368.312 282.419L368.313 282.419L368.313 282.419L368.314 282.42L368.314 282.42C369.768 282.749 371.235 283.082 372 284C373.9 286.3 376.3 289.4 376 291.8C375.7 294.5 373 297.6 370.4 299C368.3 300.1 364.9 299.3 362.3 298.6C342.934 293.47 323.609 288.258 304.273 283.042C293.455 280.124 282.634 277.206 271.8 274.3C270 273.8 267.6 273.3 266.1 274C260.5 276.6 255.1 275.7 249.6 273.8C245.826 272.542 242.047 271.29 238.265 270.036L238.257 270.034L238.248 270.031L238.2 270.015L238.168 270.004L238.159 270.001L238.152 269.999L238.15 269.998L238.148 269.997L238.145 269.996L238.143 269.996C225.73 265.882 213.286 261.758 200.9 257.4C197.1 256.1 193.4 253.7 190.5 250.9C156.7 217.3 123 183.6 89.3 149.8C88.6197 149.12 88.0159 148.21 87.2284 147.023C86.7426 146.291 86.1868 145.454 85.5 144.5ZM411.221 385.129L411.222 385.129C412.089 384.987 412.744 384.879 413.4 384.7C425.23 381.555 437.086 378.386 448.941 375.216L449 375.2L449.059 375.184C460.914 372.014 472.77 368.845 484.6 365.7C494.4 363.1 496 360 493.4 350.2L458 217.9C457.601 216.462 457.138 215.089 456.662 213.677C456.542 213.321 456.421 212.962 456.3 212.6C456.15 212.65 456 212.675 455.85 212.7C455.7 212.725 455.55 212.75 455.4 212.8C440 270.1 424.6 327.5 409.1 385.5C409.948 385.338 410.634 385.226 411.221 385.129ZM79.9 114.9C120 155 160 195 199.4 234.3L200.538 233.194C203.738 230.085 207.239 226.682 210.9 223.2L142.2 154.5C136.3 148.6 135.4 143.5 139.4 139.5C143.5 135.5 148.5 136.4 154.4 142.4L219.8 207.8C220.67 208.67 221.645 209.54 222.534 210.333L222.535 210.334L222.535 210.334C222.873 210.635 223.198 210.925 223.5 211.2C225.943 208.816 228.28 206.575 230.446 204.497L230.457 204.486L230.457 204.486L230.459 204.484L230.463 204.481L230.465 204.479L230.467 204.477L230.467 204.476L230.468 204.476C231.929 203.074 233.313 201.747 234.6 200.5C214.501 180.451 194.477 160.427 174.502 140.452L174.484 140.434C154.514 120.464 134.595 100.545 114.7 80.7C111.3 83.9 107.5 87.5 102.7 92.1C103.198 92.4409 103.69 92.7611 104.169 93.0734C105.516 93.9519 106.767 94.7671 107.8 95.8C108.721 96.7073 109.645 97.6146 110.569 98.5228C116.165 104.021 121.793 109.55 127.2 115.3C130.9 119.2 130.7 123.9 127.3 127.4C123.9 130.8 119.1 130.9 115.2 127.5C113.8 126.3 112.489 124.922 111.178 123.544C110.522 122.856 109.867 122.167 109.2 121.5C103.2 115.5 97.3 109.6 91.4 103.8C87.6137 107.41 84.2151 110.71 81.1359 113.7L79.9 114.9ZM284 86.3C283.95 86.5 283.925 86.675 283.9 86.85C283.875 87.025 283.85 87.2 283.8 87.4C333.4 100.7 383.1 114 433.3 127.4C433.186 126.643 433.116 126.029 433.056 125.504L433.055 125.499L433.055 125.497L433.054 125.494L433.054 125.491L433.054 125.49C432.956 124.636 432.885 124.018 432.7 123.4C427.2 102.9 421.7 82.4 416.1 61.9C414.1 54.6 410.4 52.3 403.2 54.2C383.36 59.5474 363.495 64.8947 343.63 70.2421L343.596 70.2511C323.722 75.6008 303.849 80.9504 284 86.3ZM78.5 42.2L78.3497 42.0527C73.2979 37.0998 68.148 32.0509 62.9 27.1C62.4438 26.6723 61.9957 26.2364 61.5487 25.8017C60.4283 24.7119 59.3153 23.6293 58.1 22.7C48.3 15.1 33.6 16.1 24.8 24.9C15.9 33.7 14.3 48.7 22.5 58C26.8906 63.0178 31.9611 67.4042 36.9669 71.7346L36.9672 71.7348L36.9674 71.735L36.9676 71.7352L36.9678 71.7354L36.968 71.7355C39.1446 73.6185 41.3091 75.4909 43.4 77.4C48.6635 72.1365 54.1135 66.6632 59.75 61.0026L59.7501 61.0024L59.7503 61.0022L59.753 60.9996L59.7635 60.989L59.7648 60.9877C65.7963 54.9304 72.0414 48.6586 78.5 42.2ZM66.0615 101.846L66.0621 101.847L66.6 102.4C72.3525 96.55 78.105 90.7237 83.8112 84.9444C89.81 78.8688 95.7575 72.845 101.6 66.9C100.088 65.296 98.5123 63.608 96.9124 61.8937L96.9106 61.8918L96.908 61.8889C95.0183 59.8641 93.0945 57.8028 91.2 55.8L90.6086 56.3964L90.6084 56.3966C78.9121 68.1912 67.4061 79.794 55.9 91.3C59.221 94.8108 62.722 98.4116 66.0615 101.846ZM244.7 217.6C235.5 226.7 226.3 235.8 217.2 244.8C221.178 246.116 225.221 247.45 229.33 248.806L229.465 248.851L229.502 248.863C238.769 251.921 248.368 255.089 258.3 258.4C256.624 253.372 254.995 248.472 253.408 243.701C250.357 234.525 247.463 225.824 244.7 217.6ZM167.939 334.562L167.948 334.564L167.969 334.57C172.378 335.734 176.9 336.928 181.4 338.1C207.997 345.249 234.619 352.398 261.241 359.547L261.289 359.56C287.901 366.707 314.513 373.853 341.1 381C341.205 381.029 341.311 381.057 341.418 381.086L341.42 381.087C342.429 381.359 343.496 381.648 344.4 382.1C348.9 384.1 351 388.3 349.6 392.6C348.2 396.9 344 399.4 339.3 398.2C330.348 395.91 321.444 393.523 312.554 391.141L312.55 391.14C308.632 390.09 304.716 389.04 300.8 388L294.089 386.204L288.384 384.678L287.225 384.368L286.58 384.195L286.579 384.195C241.603 372.161 196.57 360.112 151.7 347.9C148.7 347.1 145.4 344.6 144 341.9C141 336.5 146 330.5 153.6 330.8C158.107 331.966 162.951 333.245 167.939 334.562ZM325.7 341.8C335.1 344.3 344.6 346.8 353.1 349C358.5 349.2 361.5 347.2 362.9 342.9C364.3 338.7 362.2 334.6 358 332.7C356.562 332.023 355.124 331.633 353.625 331.226C353.352 331.152 353.077 331.077 352.8 331C330.068 324.918 307.362 318.837 284.655 312.755L284.489 312.711L284.406 312.688L284.055 312.594L284.035 312.589L284.015 312.584L283.996 312.579C261.372 306.519 238.748 300.46 216.1 294.4C210.799 293 205.498 291.588 200.197 290.177C189.598 287.355 178.999 284.533 168.4 281.8C163.1 280.5 158.8 283.2 157.5 288C156.4 292.2 158.8 296.3 163.5 298.1C164.205 298.382 164.86 298.565 165.535 298.753C165.818 298.832 166.105 298.912 166.4 299C219.5 313.3 272.6 327.6 325.7 341.8ZM402.9 192.1C403 198.2 397.6 201.9 391.1 200.2C380.063 197.254 369.002 194.307 357.94 191.361L357.904 191.351L357.864 191.34C346.801 188.394 335.738 185.447 324.7 182.5C307.7 178 290.7 173.5 273.7 168.8C271.1 168.1 268.3 166.8 266.4 165C263.7 162.3 263.5 158.7 265.6 155.4C268 151.6 271.5 150.5 276 151.7C293 156.3 310 160.8 327 165.3C336.835 167.946 346.67 170.573 356.496 173.197L356.498 173.198L356.5 173.198L356.508 173.201L356.517 173.203L356.525 173.205C368.969 176.529 381.4 179.849 393.8 183.2C400.1 184.8 402.9 187.5 402.9 192.1ZM375.267 248.949C376.787 249.343 378.268 249.727 379.7 250.1C385.1 250.1 387.9 248.2 389.3 244.1C391 239.2 388.3 234.7 382.3 233C375.652 231.2 369.005 229.426 362.357 227.652L362.352 227.65C355.701 225.875 349.05 224.1 342.4 222.3C331.155 219.24 319.842 216.25 308.573 213.271L308.573 213.27L308.566 213.268L308.544 213.263L308.522 213.257C306.179 212.638 303.838 212.019 301.5 211.4C296.3 210 291.7 212.5 290.3 217.1C288.9 221.7 291.6 226.1 296.7 227.9C297.405 228.182 298.06 228.364 298.735 228.552L298.739 228.554C298.897 228.597 299.055 228.642 299.216 228.687C299.342 228.724 299.47 228.761 299.6 228.8C308.891 231.297 318.183 233.77 327.474 236.243L327.5 236.25L327.517 236.254C336.811 238.728 346.106 241.201 355.4 243.7C362.153 245.549 369.035 247.333 375.267 248.949ZM113.5 285C111.264 284.369 108.888 283.722 106.417 283.049C100.269 281.374 93.5336 279.54 86.9 277.4C82.9 276.1 81.3 271.2 82.7 267.4C84.2 263.2 88.2 260.5 92.4 261.6C100.9 263.7 109.5 265.9 117.9 268.4C122.7 269.8 124.8 273.8 123.9 278.5C123.2 282.4 119.7 285.1 113.5 285ZM86.5687 312.709C84.3982 312.115 82.3278 311.547 80.4 311C73.7 311 70 313.8 69.4 318C68.8 322.5 71 326 75.2 327.3C83.7 329.9 92.4 332.2 101.1 334.2C105.5 335.2 108.8 332.9 110.5 328.7C112.1 324.8 110.5 319.9 106.5 318.6C99.6968 316.308 92.7295 314.398 86.5687 312.709Z" fill="url(#paint0_linear_1281_732)"/>
</g>
<defs>
<linearGradient id="paint0_linear_1281_732" x1="0" y1="0" x2="512" y2="512" gradientUnits="userSpaceOnUse">
<stop stop-color="#072142"/>
<stop offset="0.505208" stop-color="#5F1D53"/>
<stop offset="1" stop-color="#FF4D5A"/>
</linearGradient>
<clipPath id="clip0_1281_732">
<rect width="512" height="512" fill="white"/>
</clipPath>
</defs>
</svg>
