<svg width="17" height="12" viewBox="0 0 17 12" fill="none" xmlns="http://www.w3.org/2000/svg">
<path d="M1.86868 0H15.0389C16.2814 0 16.9076 0.59 16.9076 1.79V10.21C16.9076 11.4 16.2814 12 15.0389 12H1.86868C0.626208 12 0 11.4 0 10.21V1.79C0 0.59 0.626208 0 1.86868 0ZM8.44883 8.6L15.1483 3.07C15.3868 2.87 15.5757 2.41 15.2775 2C14.9892 1.59 14.4624 1.58 14.1145 1.83L8.44883 5.69L2.79309 1.83C2.44519 1.58 1.91838 1.59 1.63013 2C1.33193 2.41 1.52079 2.87 1.75935 3.07L8.44883 8.6Z" fill="white"/>
</svg>
