<svg width="40" height="40" viewBox="0 0 40 40" fill="none" xmlns="http://www.w3.org/2000/svg">
<path fill-rule="evenodd" clip-rule="evenodd" d="M20 40C31.0457 40 40 31.0457 40 20C40 8.95432 31.0457 0 20 0C8.95428 0 0 8.95432 0 20C0 31.0457 8.95428 40 20 40ZM13.3072 28.7586C17.8949 28.7586 21.6141 25.0071 21.6141 20.3795C21.6141 15.7517 17.8951 12 13.3072 12C8.71924 12 5 15.7526 5 20.3795C5 25.0063 8.71954 28.7586 13.3072 28.7586ZM30.7271 20.3794C30.7271 24.7354 28.8674 28.268 26.5735 28.268C24.2795 28.268 22.4199 24.7354 22.4199 20.3794C22.4199 16.0235 24.2792 12.4908 26.5732 12.4908C28.8672 12.4908 30.7268 16.0223 30.7271 20.3794ZM32.9937 27.4464C33.8006 27.4464 34.4545 24.2813 34.4545 20.3795C34.4545 16.4764 33.8003 13.3125 32.9937 13.3125C32.1871 13.3125 31.5331 16.4767 31.5331 20.3795C31.5331 24.2822 32.1868 27.4464 32.9937 27.4464Z" fill="white"/>
</svg>
