<svg xmlns="http://www.w3.org/2000/svg" xmlns:xlink="http://www.w3.org/1999/xlink" viewBox="0 0 900 400"><defs><style>.cls-1{isolation:isolate;}.cls-2,.cls-3{mix-blend-mode:screen;}.cls-2{fill:url(#radial-gradient);}.cls-3{fill:url(#radial-gradient-2);}.cls-4{fill:#fff;}.cls-4,.cls-6{fill-rule:evenodd;}.cls-5{opacity:0.31;}.cls-6{fill:#635eb0;}.cls-7{opacity:0.18;}.cls-8{fill:none;}</style><radialGradient id="radial-gradient" cx="-257.99" cy="-203.57" r="24.89" gradientTransform="matrix(0, -2.39, -2.37, 0, -33.22, -395.05)" gradientUnits="userSpaceOnUse"><stop offset="0" stop-color="#31229d"/><stop offset="0.53" stop-color="#31229d" stop-opacity="0.46"/><stop offset="1" stop-color="#31229d" stop-opacity="0"/></radialGradient><radialGradient id="radial-gradient-2" cx="-258.41" cy="-203.57" r="21.23" gradientTransform="matrix(0, -2.39, -2.37, 0, -32.52, -395.34)" gradientUnits="userSpaceOnUse"><stop offset="0" stop-color="#0037a4"/><stop offset="0.15" stop-color="#0834a3" stop-opacity="0.84"/><stop offset="0.74" stop-color="#25279f" stop-opacity="0.24"/><stop offset="1" stop-color="#31229d" stop-opacity="0"/></radialGradient></defs><g class="cls-1"><g id="Layer_2" data-name="Layer 2"><g id="layer1"><ellipse class="cls-2" cx="450" cy="222.61" rx="59.08" ry="59.59" transform="translate(-25.61 383.4) rotate(-45)"/><ellipse class="cls-3" cx="450.7" cy="223.32" rx="50.4" ry="50.84" transform="translate(-25.9 384.1) rotate(-45)"/><path class="cls-4" d="M406.41,223.5a44,44,0,1,1,44,44A44,44,0,0,1,406.41,223.5Z"/><g class="cls-5"><path class="cls-6" d="M421,240.12c1.95,0,3.75,1.43,5.34,2.53a10.13,10.13,0,0,1,3.32,3.73c.19.42.25.77.4,1.2,0,.09.51,1.36.51,1.39a3.89,3.89,0,0,1-1.18,2.2c-1.59,1.64-4,.46-5.61-.53a26,26,0,0,1-4.23-3.2,10,10,0,0,1-1.89-1.85,6.28,6.28,0,0,1-.39-3.34c0-1.8-2.33-3.88.52-4.27,1.12-.16,4.55.78,4.81,2.14Z"/><path class="cls-6" d="M456.17,183.11c.49-.54,1.06-.17,1.61,0a4.86,4.86,0,0,0,1.59.26,13.12,13.12,0,0,1,3.33.26c1.05.27,2.06.42,3.06.67.4.1.79.32,1.19.41s.54,0,.79,0,.13.17.21.19.41,0,.61.05a25.93,25.93,0,0,1,2.86.75,4.3,4.3,0,0,1,1.2.38c.41.25,1,.53,1.34.8a34.29,34.29,0,0,1,4.32,3.27c1.24,1.24,2.51,2.37,3.81,3.53.3.27.54.62.85.87a7.74,7.74,0,0,1,1,.73,15.29,15.29,0,0,1,1.74,2.2c1.05,1.52,2.4,2.76,3.23,4.42.4.81.76,1.59,1.23,2.36a10.49,10.49,0,0,1,.8,1.61,13,13,0,0,1,.6,1.26c.17.57.17,1.12.32,1.67.07.25.23.41.29.65s-.09.65,0,.95.22.39.29.65-.09.65,0,1,.23.39.29.65-.11.75,0,1.09.23.37.29.64a5.9,5.9,0,0,1,0,.94c0,.69.23,1.22.27,1.87a9,9,0,0,1,0,2c-.06.26-.23.38-.29.64s.08.7,0,1.06c-.72.18-.49-1.34-.49-1.71,0-.69-.28-1.07-.26-1.74,0-.82-.33-.93-.82-1.53a4.75,4.75,0,0,1-.8-1.12c-.07-.22-.06-.59-.12-.81a2.73,2.73,0,0,1-.13-.8c0-.65.05-1-.46-1.4a4,4,0,0,0-1.39-.74c-.6-.14-1.13-.13-1.76-.25-.28,0-.37-.22-.64-.29s-.69.14-1,0a2.42,2.42,0,0,1-.8-1.08,2,2,0,0,1,.21-1.54c.09-.17.16-.36.27-.53s.37-.39.48-.58c.5-.93-.23-2.43-.42-3.21-.08-.3-.54-1.22-.29-1.5s1.76,0,2.05.13c.17-.34-.15-1-.25-1.34a6.12,6.12,0,0,0-.57-1.42,5.79,5.79,0,0,0-2.17-2c-.54-.28-.87-.43-1,.3,0,.33,0,.51-.12.81s-.34.24-.42.51.09.66,0,1-.21.35-.25.54c-.15.63.1,1.34,0,2a2.66,2.66,0,0,1-2.28,2.13,20.25,20.25,0,0,0-3.31,1.06,5.25,5.25,0,0,1-3.75.33,16.73,16.73,0,0,1-2.76-1.42,11.49,11.49,0,0,0-1.24-.5c-.49-.19-1-.37-1.48-.51a11.33,11.33,0,0,1-2.71-.89,8.33,8.33,0,0,1-2.34-1.79,3.75,3.75,0,0,1-.63-3.06c.28-.67,1.29-1.25,1.77-1.81.82-1,.6-1.6,0-2.59a6.4,6.4,0,0,1-.71-1.23,7.15,7.15,0,0,1,0-1.85,2.37,2.37,0,0,1,.46-1.27c.26-.39.87-.64,1.08-1s0-.55-.13-.82c0-.08-.18-.1-.22-.18s0-.37-.12-.55c-.26-.61-.79-.52-1.34-.66a2.45,2.45,0,0,0-1.6.12,2.76,2.76,0,0,1-.79.28c-.39.06-.57-.15-.86-.21-.66-.13-1,.31-1.68.35a1.55,1.55,0,0,1-1.26-.61c-.34-.34-.81-.9-.75-1.41S455.81,183.59,456.17,183.11Z"/><path class="cls-6" d="M461.24,203.09l-.47.23a6.6,6.6,0,0,0-1.4-1.3c-.78-.48-1.16-.17-1.34.66-.09.43.14.69.22,1s0,.73.38.95,2,.15,1.81-.74Z"/><path class="cls-6" d="M486.81,237.45a.44.44,0,0,1,.49-.24,4.57,4.57,0,0,1,0,1.69c-.05.24-.21.37-.25.68s0,.49-.05.74-.35.86-.42,1.19a5.69,5.69,0,0,1-.33,1.26c-.19.43-.3,1-.49,1.49a7.93,7.93,0,0,1-.64,1.18c-.49.81-.9,1.59-1.39,2.4a16.23,16.23,0,0,1-3.22,4c-.46.38-1,.67-1.45,1-.17.11-.3.3-.46.4s-.4.15-.54.26c-.42.3-1.62,1.51-2.16,1.22.38-1,1-2,1.5-2.95.55-1.12,1.57-1.07,2.39-1.86,1.29-1.25-.85-1.77-1.59-2.26s-.74-1.15-.74-1.94a6.08,6.08,0,0,0-.26-2,7.14,7.14,0,0,1-.28-.93l0-.55a.42.42,0,0,0-.22-.31,2.8,2.8,0,0,1,.4-1.86,4.26,4.26,0,0,1,.93-1.74c.53-.49,1.1-.32,1.8-.33a3.44,3.44,0,0,1,1.07.2c.26.07.65.23.86.27s.63,0,.94.12.36.26.8.14.9-.64,1.38-.75c.67-.15,1.43.17,2.1,0C487,237.87,487.06,237.79,486.81,237.45Z"/><path class="cls-6" d="M437,203.44a3.44,3.44,0,0,0,2.24-1.54c.62-.9-.54-1.84-1.2-2.29a3.55,3.55,0,0,0-.75-.45,3.26,3.26,0,0,0-.69-.32c-.47,0-.65,1.12-.82,1.49-.56,1.17.33,2,1.22,2.71Z"/><path class="cls-6" d="M433.2,201.65l.16-.13c.26.56-.15,1.17-.19,1.7-.38,0-1.18-.69-1.18-1.07,0-.65,1-.69,1.41-.7Z"/><path class="cls-6" d="M426.24,227.51c.22,1,1.58-.12,1.93-.45a3.06,3.06,0,0,0,.66-.74A3.26,3.26,0,0,0,429,225c0-.49.2-.88.2-1.39a5.32,5.32,0,0,0-.19-1.5,3.82,3.82,0,0,0-1.6-2c-.36-.25-.8-.43-1.2-.65s-.52-.4-1.06-.12a6.4,6.4,0,0,0-1.77,1.12,9.35,9.35,0,0,0-1.54,1.84c-.53.9,0,1.59.5,2.38a15.86,15.86,0,0,0,2.13,2.54,4.28,4.28,0,0,0,.79.8C425.79,228.32,426.33,227.89,426.24,227.51Z"/><path class="cls-6" d="M426.43,231.09l.16,0c0,.26.57,1.09.21,1.33s-.7-.37-.86-.56-.51-.91-.16-1.26a.5.5,0,0,1,.85.46Z"/><path class="cls-6" d="M435.19,187.53a1.92,1.92,0,0,0,1.49.38c.5-.11.9-.29,1.39-.38a9.77,9.77,0,0,0,3.09-1.19c1.24-.76,3.42-2.92,1.31-4a6.54,6.54,0,0,0-2.91-.37c-.5,0-.78.21-1.29.2a5.55,5.55,0,0,0-1.49.3,16,16,0,0,0-2.59.84,6.5,6.5,0,0,0-1.94,1.44,1.62,1.62,0,0,0-.1,2.44c.44.45.83.35,1.44.35Z"/><path class="cls-6" d="M429.82,187.93a.3.3,0,0,1,.37-.18c.22.45-.9,1.16-1.22,1.32-.53.27-1.55.83-1.75,0-.13-.57.5-1.33,1-1.61a1.32,1.32,0,0,1,1.79.71Z"/><path class="cls-6" d="M413.31,225.52l.16,0a6.63,6.63,0,0,0-.17-2.35c0-.79,0-1.6,0-2.39s0-1.59,0-2.38a4.26,4.26,0,0,0-.05-1,4.26,4.26,0,0,1-.16-.44,7.15,7.15,0,0,1,0-.8,5.48,5.48,0,0,0-.05-1.15,4.59,4.59,0,0,0-.15-.44c-.08-.23,0-.25-.15-.45a1.32,1.32,0,0,0-1.65-.6c-.49.25-.86.63-1.37.85a2.56,2.56,0,0,0-1.41,1.39,11.5,11.5,0,0,0-.59,1.8c-.05.17-.17.2-.21.38s0,.38,0,.56-.13.25-.15.44,0,.27,0,.41a.27.27,0,0,1-.16.23,5.11,5.11,0,0,0,0,1c0,.42-.18.75-.2,1.19s-.21.75-.21,1.19,0,.8,0,1.2c0,.79,0,1.59,0,2.38a4.46,4.46,0,0,0,.2,1c.08.4.11.82.19,1.21s.3.58.37.83a2.35,2.35,0,0,0,.39,1,2.69,2.69,0,0,0,1.39,1.23,2.25,2.25,0,0,0,2.2-.3,2.12,2.12,0,0,0,.64-.73c.05-.16,0-.39,0-.56a2.22,2.22,0,0,0,.15-.65,12.46,12.46,0,0,1,0-2.59c.09-.36.33-.8.46-1.18S412.91,224.84,413.31,225.52Z"/><path class="cls-6" d="M414.3,235.66c.52.17.8-1,.8-1.39s.1-.69-.19-.91a1.68,1.68,0,0,0-1-.1c-.63.19-.58,1.09-.58,1.6s.48,1.33,1.19,1.2Z"/><path class="cls-6" d="M482.52,236.46l0,.16c.2,0,.31.17.48.22a2.57,2.57,0,0,0,.68,0,8,8,0,0,1,1.18.21c.22,0,.49,0,.71,0a2.7,2.7,0,0,0,.54-.16,2.6,2.6,0,0,0,1.15-.34,5.69,5.69,0,0,0,1.39-1.77,5.05,5.05,0,0,0,.79-2.51,1.71,1.71,0,0,0-.22-1.07,4.78,4.78,0,0,1-.52-1,1.49,1.49,0,0,0-1.64-1.14,5,5,0,0,0-2.39.89,10.41,10.41,0,0,0-.92.68,3,3,0,0,0-.78.61,6.87,6.87,0,0,0-.79,2.39,3.66,3.66,0,0,0-.08,1.48c0,.08.12.09.14.16s0,.31,0,.46S482.59,236.2,482.52,236.46Z"/><path class="cls-6" d="M480.33,234.87c.51,0-.18,1.42-.74,1.35s-.91-.86-1-1.27c-.49-1.78,2.21-1.92,2.17-.28Z"/><path class="cls-6" d="M473.77,231.68c0-.42.46-.67.55-1a1.14,1.14,0,0,0-.3-1c-.18-.25-.52-.63-.85-.56s-.53.52-.79.72c-.52.39-1.45.79-.8,1.59a1.76,1.76,0,0,0,1.1.5,1.49,1.49,0,0,0,1.29-.41Z"/><path class="cls-6" d="M487.49,214c.74-.17.68,1,.57,1.36a5,5,0,0,1-1,.25,2.89,2.89,0,0,1-1.15-.47,1.34,1.34,0,0,1-.55-1.74c.21-.42,1.18-1.06,1.66-.75a2.58,2.58,0,0,1,.63,1.75Z"/><path class="cls-6" d="M431.41,256.74c.18.37.31.52,0,.8a1,1,0,0,1-1,.15,3.45,3.45,0,0,1-1.29-1.09,2.4,2.4,0,0,1-.51-.9,1.22,1.22,0,0,1,.31-.8,12.15,12.15,0,0,1,1.19-1.19c.57-.59.93-.24,1.4.3s.65.93,1,1.39a4.27,4.27,0,0,1,.4.8,1.16,1.16,0,0,1-.26.75,3.81,3.81,0,0,1-1.49,1.19Z"/><path class="cls-6" d="M426.63,255.15l.17,0a.68.68,0,0,0-.55-1c-.46-.11-1.12.09-1.22.5s.31.78.6,1c.47.35.9.41,1-.3Z"/><path class="cls-6" d="M429.62,204.24c-.06-.2.18-.75.24-1a8,8,0,0,1,.35-.93,4.14,4.14,0,0,0,.3-1c.07-.36.25-.65.31-1,.14-.75-.73-1.27-1.41-1.11a5.47,5.47,0,0,0-1.63,1c-.33.24-.41.19-.6.6a7.57,7.57,0,0,0-.34,1.05,2.81,2.81,0,0,0-.21,1,5.34,5.34,0,0,0,.05,1.2c.46,1.87,2.51.67,2.94-.6Z"/><path class="cls-6" d="M423.65,191.31c.19.7-1.13,1.19-1.59,1.19s-.64-.06-.85-.55a1,1,0,0,1,.05-1.14,2.24,2.24,0,0,1,2.28-.68c.83.33.46,1.43-.29,1.58Z"/><path class="cls-6" d="M432.2,205.63a1.06,1.06,0,0,1,.61.58c.05.18,0,.38,0,.57a1.67,1.67,0,0,1,.16.43c0,.2-.05.42,0,.61s.18.38.22.59c.06.39-.09.81,0,1.2s.41.77.17,1.15-.64.28-1,.24a8.9,8.9,0,0,1-1-.24,4.3,4.3,0,0,1-1.28-.56,2.69,2.69,0,0,1-1.32-1.48,6.32,6.32,0,0,1,.11-2.3,2.43,2.43,0,0,1,.89-1.5A3.07,3.07,0,0,1,432,205Z"/><path class="cls-6" d="M427.63,206v.13c.18-1-1-.86-1.2-.14s1,1.06,1.2.2Z"/><path class="cls-6" d="M413.64,212a2.6,2.6,0,0,0-.28,1.75,12.4,12.4,0,0,0,.74,1.82,2.1,2.1,0,0,1,.07,1.31,5.06,5.06,0,0,0,0,1.82,18.73,18.73,0,0,1,.37,2.07,21.16,21.16,0,0,1,0,2.39,3.71,3.71,0,0,0,2.21,3.54,2.93,2.93,0,0,0,1.37.24,1.21,1.21,0,0,0,1.07-.53,4.75,4.75,0,0,0,.78-1.36,6.62,6.62,0,0,0,.56-1.32c.19-.74-.16-1.86.35-2.51a3.73,3.73,0,0,1,.58-.45c.22-.18.41-.4.62-.6a3.94,3.94,0,0,0,.78-1.54,4.75,4.75,0,0,1,.82-1.37c.52-.53,1.23-.86,1.7-1.41a2,2,0,0,0,.45-1.4,4.34,4.34,0,0,0,0-1.08,4.34,4.34,0,0,1-.29-1.07,3,3,0,0,1,.16-1.2,4.09,4.09,0,0,0,.31-1.69,8.35,8.35,0,0,0-1.53-3.62,4.89,4.89,0,0,1-.73-1.63,4.68,4.68,0,0,1,.27-2.06,5.92,5.92,0,0,1,1-1.75,6.32,6.32,0,0,1,1.3-1.64,3.71,3.71,0,0,1,1.84-.9,7.09,7.09,0,0,1,.78-.14,6.35,6.35,0,0,1,1,.17c1.35.14,2.5-.72,3.81-.78a2.62,2.62,0,0,1,1.53.37,4,4,0,0,0,1.28.52c1.1.23,2.52-.37,3.4.48.33.33.39.78.71,1.08a4.2,4.2,0,0,0,2.06.86,22.39,22.39,0,0,1,3.24.75c1,.39,2,1.09,3,1.45a7.14,7.14,0,0,0,3.67-.1,3.22,3.22,0,0,0,1.92-1.13,4.24,4.24,0,0,1,.6-1,1.79,1.79,0,0,1,1.06-.4,2.92,2.92,0,0,0,2.18-2.49c.19-.86.07-1.73.22-2.6a14.48,14.48,0,0,1,.89-2.75,4.64,4.64,0,0,0,.38-2.08c0-.66-.11-1.71-.76-2.06a3,3,0,0,0-1.76-.22,7.86,7.86,0,0,1-3,0,2.91,2.91,0,0,1-1.71-1.69c-.57-1-.84-2.17-1.44-3.21a2.54,2.54,0,0,0-2-1.53,1.83,1.83,0,0,0-1.51.78c-.54.63-.87,1.42-1.39,2.08a9.6,9.6,0,0,1-1.47,1.58c-1,.74-2.25.78-3.35,1.2s-2.16,1.31-3.4,1.61c-1.62.4-3.26.08-4.91.26a12.26,12.26,0,0,0-2.86.73,16.79,16.79,0,0,0-2.13,1.15,19.48,19.48,0,0,1-2.17,1.14c-.79.3-1.62.49-2.41.83a16.41,16.41,0,0,1-2.21.93,7.11,7.11,0,0,0-2.47,1.28,6.2,6.2,0,0,0-1.68,2.12c-.25.51-.4,1.06-.67,1.56a7.2,7.2,0,0,1-1.05,1.35c-.55.62-1.13,1.19-1.67,1.82a15.28,15.28,0,0,0-1.53,2.67c-.35.67-.52,1.39-.83,2.09a18,18,0,0,1-1,2.08,3.71,3.71,0,0,0-.59,1.37,1.85,1.85,0,0,0,.13.61c.07.22.24.37.3.58.11.4,0,.93.31,1.25s.55.2.84,0a3.15,3.15,0,0,1,.92-.45A1.64,1.64,0,0,1,413.64,212Z"/></g><g class="cls-7"><path class="cls-6" d="M447.88,187.34a6.81,6.81,0,0,0-.95,1.19,2.91,2.91,0,0,0,.05.4,2.07,2.07,0,0,1-.1.74,9.69,9.69,0,0,1-1,1.83,4.9,4.9,0,0,1-.51.6c-.17.2-.26.4-.46.6a19.4,19.4,0,0,0-1.64,1.75,2.87,2.87,0,0,0-.07,3.7,2.65,2.65,0,0,0,1.16.83,1.75,1.75,0,0,0,.79-.06c.47-.13,1-.17,1.43-.29a2.31,2.31,0,0,1,1.55.16,8.39,8.39,0,0,1,.84.3,3.42,3.42,0,0,0,.77.37,2.61,2.61,0,0,0,1.73-.22,9.74,9.74,0,0,0,1.13-.54c.47-.25,1-.35,1.49-.58a7,7,0,0,0,1.08-.68,4.18,4.18,0,0,0,.67-.78c.58-.67.4-1.7.67-2.49a15.25,15.25,0,0,0,.95-2,2.41,2.41,0,0,0-.67-1.86,2.71,2.71,0,0,0-2-.87c-.57,0-1.15,0-1.72,0a3.15,3.15,0,0,1-1.14-.39c-.43-.2-.77-.46-1.18-.68s-.65-.48-1-.66a2.42,2.42,0,0,0-1-.37C448.3,187.29,448.1,187.49,447.88,187.34Z"/><path class="cls-6" d="M435.28,191.76c-.12-.57-.28-1.12-.94-1.23a3.66,3.66,0,0,0-1.19,0,4.69,4.69,0,0,0-1.43.8c-.51.31-1.57.62-1.48,1.39s.83,1,1.31,1.38.87.94,1.64.84a2.38,2.38,0,0,0,1.67-1.35,8.26,8.26,0,0,0,.65-1.25c.09-.3.06-1-.38-1.07Z"/><path class="cls-6" d="M444.59,215.72c-.1-.44-.22-.86-.73-.95a2.84,2.84,0,0,0-.92,0,3.8,3.8,0,0,0-1.11.62c-.39.24-1.2.48-1.13,1.07s.63.79,1,1.07.68.72,1.27.65a1.8,1.8,0,0,0,1.29-1,6.86,6.86,0,0,0,.5-1c.08-.23.05-.78-.29-.83Z"/><path class="cls-6" d="M419.78,217.9c-.08-.38-.19-.74-.63-.82a2.39,2.39,0,0,0-.8,0,3.09,3.09,0,0,0-1,.54c-.34.21-1.05.42-1,.93s.56.69.88.93.59.63,1.1.56a1.55,1.55,0,0,0,1.13-.9,5.71,5.71,0,0,0,.44-.85c.06-.19,0-.67-.26-.71Z"/><path class="cls-6" d="M410.75,215.68a1.09,1.09,0,0,0-.48-.66c-.19.2-.45.29-.66.48a2.9,2.9,0,0,0-.87,1.57,11.11,11.11,0,0,0,0,1.15c0,.55-.14,1-.17,1.58,0,1-.1,1.94.81,2.6a1.25,1.25,0,0,0,1.74-.1,3.57,3.57,0,0,0,.94-2.05c.07-.39.07-.79.14-1.18s.14-.65.23-1a2.54,2.54,0,0,0-.19-2.14C411.86,215.33,411.5,214.92,410.75,215.68Z"/><path class="cls-6" d="M466.07,190c-.65.15-1.28.32-1.91.51,0,.62-.34,1.15-.09,1.78.32.79,1,1.37,1.28,2.16.52,1.57-.72,2.9-.93,4.38-.3,2.11,2.63,2,3.91,2.11a7,7,0,0,1,2.61.63,9.46,9.46,0,0,0,2.76,1.16,4.28,4.28,0,0,0,2.89-.7,5,5,0,0,0,2.05-2.57,3.54,3.54,0,0,0-.16-2.13,6,6,0,0,0-1.66-2.09c-.48-.49-.82-1.07-1.29-1.57s-1.15-1.28-1.74-1.91a12.64,12.64,0,0,0-3.08-2.76,4.23,4.23,0,0,0-2.72-.52A2,2,0,0,0,466.07,190Z"/></g><rect class="cls-8" width="900" height="400"/></g></g></g></svg>