<svg width="40" height="40" viewBox="0 0 40 40" fill="none" xmlns="http://www.w3.org/2000/svg">
<path fill-rule="evenodd" clip-rule="evenodd" d="M7.34413 0.180262C6.89427 0.268171 5.991 0.589393 5.33698 0.894109C4.61385 1.23109 3.7659 1.83478 3.17298 2.43457C2.63668 2.97705 1.89196 4.00282 1.5181 4.71407C1.14443 5.42532 0.647068 6.63306 0.413103 7.3981C0.0854406 8.46989 -0.00918616 9.21452 0.000686563 10.6437C0.0101867 12.0191 0.140008 12.9776 0.502877 14.353C0.777637 15.3947 1.43261 17.1019 1.99721 18.2477C2.55009 19.3697 3.62938 21.1402 4.39572 22.1819C5.16207 23.2238 6.32985 24.7261 6.99076 25.5202C7.65186 26.3146 9.06589 27.8754 10.1333 28.9889C11.2008 30.1023 13.0057 31.8132 14.1444 32.7909C15.2829 33.7685 17.0442 35.1233 18.0579 35.8017C19.0718 36.48 20.655 37.4106 21.5759 37.8696C22.4971 38.3289 23.7878 38.8793 24.444 39.0931C25.1003 39.3072 26.3577 39.6171 27.2382 39.7821C28.3497 39.9906 29.2822 40.0459 30.2883 39.9633C31.0856 39.898 32.3849 39.6388 33.1756 39.3875C33.9666 39.136 35.0406 38.6849 35.5626 38.3849C36.0845 38.085 36.9723 37.4203 37.5353 36.9078C38.1865 36.3155 38.7693 35.5512 39.1369 34.808C39.4545 34.1654 39.8004 33.0975 39.9053 32.4348C40.0196 31.7117 40.0316 30.9504 39.9349 30.5303C39.8462 30.1457 39.6387 29.6256 39.4738 29.3751C39.309 29.1245 38.9227 28.7901 38.6153 28.6319C38.308 28.4737 36.0491 27.7207 33.5957 26.9589C31.1422 26.1968 28.8959 25.5735 28.6042 25.5735C28.3125 25.5735 27.6592 25.8335 27.1525 26.1514C26.6458 26.4692 25.6796 27.3038 25.0053 28.006C24.312 28.728 23.6222 29.2827 23.4175 29.2827C23.2183 29.2827 22.4129 28.9181 21.6273 28.4724C20.842 28.0268 19.8381 27.3836 19.3967 27.0429C18.955 26.7024 17.8513 25.7107 16.9436 24.8394C16.036 23.9681 14.8114 22.671 14.2222 21.9569C13.633 21.2429 12.5944 19.8128 11.9141 18.7788C11.2336 17.7449 10.6777 16.7434 10.6789 16.5533C10.6798 16.3628 11.2545 15.6914 11.9593 15.0572C12.6627 14.4245 13.5 13.513 13.8203 13.0317C14.1939 12.4703 14.4026 11.9241 14.4026 11.508C14.4026 11.1513 13.8068 8.93318 13.0787 6.57873C12.3505 4.22428 11.605 2.00577 11.4219 1.64875C11.239 1.29173 10.9335 0.861832 10.7433 0.693432C10.5531 0.525217 10.0623 0.296167 9.65247 0.184519C9.24266 0.0728699 8.73971 -0.00965904 8.53481 0.000912336C8.3299 0.0114837 7.79417 0.0921669 7.34413 0.180262Z" fill="white"/>
</svg>
